<svg xmlns="http://www.w3.org/2000/svg" width="519" height="358" fill="none"><path d="M519 320.813V162.226H281.603v158.587H519Z" fill="#254AA5"></path><path d="m400.176 179.463 2.265 7.035 7.366-.036-5.98 4.32 2.308 7.023-5.959-4.373-5.935 4.373 2.308-7.023-5.993-4.32 7.367.036 2.253-7.035ZM400.176 285.256l2.265 7.015 7.366-.033-5.98 4.333 2.308 7.022-5.959-4.365-5.935 4.365 2.308-7.022-5.993-4.333 7.367.033 2.253-7.015ZM373.897 186.498l2.257 7.032 7.371-.021-5.968 4.3 2.304 7.014-5.964-4.364-5.938 4.364 2.303-7.014-5.968-4.3 7.371.021 2.232-7.032ZM354.566 205.916l2.241 7.031 7.383-.047-6.001 4.327 2.303 7.013-5.926-4.371-5.951 4.371 2.312-7.013-6.005-4.327 7.391.047 2.253-7.031ZM347.426 232.307l2.232 7.016 7.392-.034-5.985 4.325 2.283 7.002-5.922-4.37-5.947 4.37 2.325-7.002-6.01-4.325 7.383.034 2.249-7.016ZM354.474 258.679l2.262 7.06 7.353-.058-5.976 4.325 2.32 7.01-5.959-4.385-5.947 4.385 2.32-7.01-5.992-4.312 7.366.045 2.253-7.06ZM373.897 278.089l2.257 7.037 7.371-.038-5.968 4.312 2.304 7.019-5.964-4.361-5.938 4.361 2.303-7.019-5.968-4.312 7.371.038 2.232-7.037ZM426.492 186.498l-2.249 7.032-7.392-.021 5.997 4.3-2.311 7.014 5.955-4.364 5.938 4.364-2.299-7.014 5.976-4.3-7.354.021-2.261-7.032ZM445.835 205.916l-2.253 7.031-7.379-.047 5.989 4.327-2.312 7.013 5.955-4.371 5.959 4.371-2.324-7.013 5.98-4.327-7.375.047-2.24-7.031ZM452.971 232.307l-2.249 7.016-7.396-.034 6.002 4.325-2.312 7.002 5.955-4.37 5.951 4.37-2.304-7.002 5.968-4.325-7.37.034-2.245-7.016ZM445.885 258.679l-2.224 7.06-7.378-.058 5.992 4.325-2.316 7.01 5.926-4.385 5.972 4.385-2.308-7.01 5.985-4.312-7.375.045-2.274-7.06ZM426.492 278.089l-2.249 7.037-7.392-.038 5.997 4.312-2.311 7.019 5.955-4.361 5.938 4.361-2.299-7.019 5.976-4.312-7.354.038-2.261-7.037Z" fill="#FFF200"></path><path d="M319.468 130.591v-13.114c-4.778-4.087-23.81-12.269-35.425-14.839v9.232c13.276 3.266 29.822 12.876 35.425 18.721ZM329.121 150.163h11.278c.335-16.548-13.079-26.792-14.992-28.276v15.767c4.3 6.991 3.714 12.509 3.714 12.509ZM357.184 116.856v14.235c5.666 5.941 9.07 10.593 11.767 19.14h11.944c-3.191-13.068-10.78-23.748-23.711-33.375ZM349.914 124.661v-12.825c-10.956-7.095-32.623-16.82-54.256-21.34v9.197c20.791 5.048 42.894 15.837 54.256 24.968ZM380.618 116.876v-12.69c-13.153-8.301-40.219-19.902-72.159-26.656v9.182c30.671 7.42 53.951 18.006 72.159 30.164ZM389.107 109.587c-.008-.009-.025 13.644-.025 13.644 8.384 6.667 16.5 15.445 21.906 27h12.677c-4.343-14.379-20.571-31.807-34.558-40.644ZM414.854 108.977V96.283c-25.144-14.895-62.826-27.984-92.76-33.265v9.153c33.804 6.791 74.07 23.52 92.76 36.806ZM455.521 150.231h13.276c-9.544-22.898-33.469-41.253-44.642-48.24v13.468c16.923 12.552 23.179 21.524 31.366 34.772ZM448.561 100.959v-13.15c-20.365-12.478-61.573-31.157-111.751-40.836v9.555c38.18 7.941 86.855 26.908 111.751 44.431ZM498.618 150.231h14.527c-16.106-27.44-34.532-43.129-54.441-56.1v13.782c14.758 10.377 30.567 25.847 39.914 42.318ZM274.531 109.297v-8.672c-13.062-2.46-36.033-4.03-46.126-2.712v6.792c15.156-.789 37.472 2.032 46.126 4.592ZM218.24 105.326v-6.488c-24.25 2.539-40.884 10.883-50.508 18v5.581c13.74-11.106 32.775-15.702 50.508-17.093ZM162.128 128.24l.002-6.314c-22.308 25.096 5.603 45.997 8.572 48.079v-8.58c-15.603-11.808-13.771-26.2-8.574-33.185ZM179.148 166.742v9.201c15.148 8.395 30.392 13.702 52.079 17.592l-.156-12.474c-14.737-.892-34.992-5.099-51.923-14.319ZM238.465 181.455l-.065 12.973c12.681 1.056 24.655 1.375 31.183 1.368v-14.595c-9.627.647-27.47.773-31.118.254ZM286.146 97.457v-8.845c-15.614-3.167-45.881-5.525-63.812-3.85v6.88c23.665-.873 47.069 2.154 63.812 5.815ZM223.044 218.551v-13.889c-23.219-2.061-58.918-10.177-81.089-26.47v9.263c24.312 18.357 62.763 28.541 81.089 31.096ZM133.54 180.501v-9.173c-19.673-18.73-15.832-37.785-3.13-50.062v-5.736c-24.415 22.199-15.47 49.068 3.13 64.971ZM231.202 205.407v14.381c14.134 1.99 26.39 2.628 38.381 2.628v-15.87c-12.932.069-32.639-.603-38.381-1.139ZM136.992 110.124v5.406c21.156-15.763 52.882-22.116 75.182-23.326v-6.606c-27.617 1.806-59.343 12.405-75.182 24.526ZM102.568 188.913v9.937c30.348 27.409 80.282 42.331 110.445 47.54v-15.487c-27.793-3.12-78.016-13.909-110.445-41.99ZM298.946 84.435v-8.73c-19.614-3.575-53.504-7.473-85.242-4.566v6.916c26.675-1.86 64.328 1.613 85.242 6.38ZM221.945 231.91v16.028c13.453 2.695 35.581 3.948 47.638 4.39v-17.863c-7.182.255-38.667-1.555-47.638-2.555ZM203.52 78.699v-6.721c-23.592 2.034-65.779 10.447-93.765 29.415v5.442c27.237-18.572 69.393-26.814 93.765-28.136ZM102.074 112.371v-5.536c-12.804 9.669-44.199 42.269-7.857 83.531v-10.009c-8.078-9.042-27.575-38.329 7.857-67.986ZM312.579 70.122V61.16c-23.751-4.668-70.032-8.708-106.42-5.13v6.923c32.167-2.491 77.925 1.142 106.42 7.17ZM212.045 259.363v16.954c17.914 3.489 40.222 5.651 57.538 6.241v-19.239c-20.71-.352-38.577-1.335-57.538-3.956ZM202.26 274.712v-16.405c-49.803-7.051-104.681-25.217-138.688-58.605v10.582c40.289 40.185 107.12 58.711 138.688 64.428ZM82.24 91.79v5.336c33.294-21.22 78.908-30.342 113.752-33.436v-6.75C162.493 59.85 113.435 71.273 82.24 91.79ZM55.17 200.035v-10.906c-13.037-17.797-25.828-52.902 19.22-86.515v-5.488c-50.591 36.22-37.983 80.556-19.22 102.909ZM20.235 206.877v11.821c38.22 49.642 117.131 78.864 166.198 89.216V289.79c-51.552-8.739-129.881-34.03-166.197-82.913ZM327.191 54.476v-9.304c-23.494-4.914-80.592-11.253-130.88-6.012v7.15c42.048-3.705 95.111.816 130.88 8.166ZM186.152 47.178V40.19c-43.638 4.459-97.817 19.572-129.478 40.287v5.54c39.774-24.42 92.559-35.34 129.478-38.838ZM197.093 291.518v18.583c11.204 2.858 53.735 8.952 72.49 9.099v-21.302c-28.623-.909-57.857-4.022-72.49-6.38ZM48.143 91.642v-5.626c-12.807 8.27-73.45 53.861-36.198 119.649v-13.269c-23.3-48.496 12.217-83.691 36.198-100.754Z" fill="#787F84"></path></svg>