<svg xmlns="http://www.w3.org/2000/svg" id="b" viewBox="0 0 57.06 54.27"><g id="c"><g id="d"><g id="e"><g id="f"><path id="g" d="M10.9,54.27l24.27-17.63-8.82-12.14-15.45,29.77Z" style="fill:#fc0;"></path><path id="h" d="M10.9,54.27l9.27-28.53,14.27,4.64-23.54,23.9Z" style="fill:#fc0;"></path></g><g id="i"><g id="j"><path id="k" d="M0,20.73l24.27,17.63,8.82-12.14L0,20.73Z" style="fill:#fc0;"></path><path id="l" d="M0,20.73h30v15S0,20.73,0,20.73Z" style="fill:#fc0;"></path></g><g id="m"><path id="n" d="M28.53,0l-9.27,28.53,14.27,4.64L28.53,0Z" style="fill:#fc0;"></path><path id="o" d="M28.53,0l9.27,28.53-14.27,4.64L28.53,0Z" style="fill:#fc0;"></path></g></g><g id="p"><g id="q"><path id="r" d="M46.17,54.27l-24.27-17.63,8.82-12.14,15.45,29.77Z" style="fill:#fc0;"></path><path id="s" d="M46.17,54.27l-9.27-28.53-14.27,4.64,23.54,23.9Z" style="fill:#fc0;"></path></g><g id="t"><path id="u" d="M57.06,20.73l-24.27,17.63-8.82-12.14,33.09-5.5Z" style="fill:#fc0;"></path><path id="v" d="M57.06,20.73h-30v15s30-15,30-15Z" style="fill:#fc0;"></path></g></g></g></g></g></svg>