<svg width="64" height="64" viewBox="0 0 64 64" fill="none" xmlns="http://www.w3.org/2000/svg">
<g clip-path="url(#clip0_313_239)">
<path d="M49.7275 3.88997C51.6476 0.359097 56.2091 -1.02067 59.9161 0.808214C63.6289 2.63999 65.0751 6.99501 63.1437 10.5274L55.3803 24.7253C55.0696 25.2936 54.6846 25.8122 54.2395 26.2721C56.361 29.2642 57.0186 33.1115 55.6742 36.7535C55.3679 37.5833 55.0446 38.4485 54.7084 39.3329C54.5654 39.7094 54.1065 39.8787 53.7339 39.6932L28.6837 27.2242C28.278 27.0223 28.1841 26.5087 28.4908 26.1851C29.1143 25.5273 29.7213 24.8669 30.3041 24.2172C33.0441 21.1628 37.1045 19.435 41.2057 19.5631C41.2521 19.4721 41.3011 19.3814 41.3526 19.2912L49.7275 3.88997Z" fill="#096AD9"/>
<path d="M25.0111 30.2553C24.7478 30.1242 24.4265 30.1673 24.2089 30.3599C22.6669 31.7245 21.1286 32.9157 19.6933 33.7638C14.8469 36.6275 10.8404 37.6596 8.35229 38.0259C6.89713 38.2401 5.71603 39.1325 5.1407 40.2897C4.53971 41.4985 4.58501 43.0825 5.7529 44.3083C7.03972 45.6589 8.94597 47.4465 11.6953 49.5971C11.8565 49.7233 12.069 49.7728 12.2735 49.7337C14.1967 49.3655 16.1991 49.0179 17.9465 48.1478C18.455 47.8945 19.2164 47.4434 20.1713 46.6634C21.1221 45.8867 22.5692 45.9701 23.4036 46.8495C24.2378 47.7291 24.1434 49.0716 23.1926 49.8484C21.9853 50.8346 20.9355 51.4758 20.103 51.8903C19.422 52.2294 18.7092 52.511 17.9816 52.7513C17.4288 52.9337 17.2994 53.6433 17.7794 53.962C19.1643 54.8812 20.6747 55.8411 22.3207 56.8382C23.1625 57.3482 23.9926 57.8276 24.8064 58.2779C25.0386 58.4064 25.3282 58.3946 25.5467 58.2458C26.7214 57.4454 27.733 56.6423 28.5577 55.9053C30.4235 54.2381 32.0334 52.4012 33.3353 50.2886C33.9688 49.2605 35.3622 48.8986 36.4475 49.4805C37.5328 50.0624 37.8989 51.3675 37.2653 52.3957C35.7415 54.8686 33.8558 57.0337 31.6697 58.9874C31.2914 59.3254 30.8801 59.6749 30.4375 60.031C30.0458 60.3461 30.1157 60.9459 30.5802 61.1526C33.3487 62.3838 35.6783 63.2151 37.2814 63.7308C39.6068 64.4789 42.0919 63.6233 43.4262 61.7199C45.1131 59.3134 48.0759 54.7751 50.6196 49.2529C51.2796 47.8201 51.951 46.258 52.6092 44.657C52.7384 44.3429 52.5977 43.9868 52.2838 43.8306L25.0111 30.2553Z" fill="#096AD9"/>
<path d="M12.1906 24.3884C13.9993 24.3884 15.4656 22.9917 15.4656 21.2689C15.4656 19.5461 13.9993 18.1494 12.1906 18.1494C10.3818 18.1494 8.91553 19.5461 8.91553 21.2689C8.91553 22.9917 10.3818 24.3884 12.1906 24.3884Z" fill="#096AD9"/>
<path d="M3.27505 33.9773C5.08373 33.9773 6.55002 32.5806 6.55002 30.8577C6.55002 29.1349 5.08373 27.7383 3.27505 27.7383C1.46627 27.7383 8.69478e-06 29.1349 0 30.8577C0 32.5806 1.46627 33.9773 3.27505 33.9773Z" fill="#096AD9"/>
</g>
<defs>
<clipPath id="clip0_313_239">
<rect width="64" height="64" fill="white"/>
</clipPath>
</defs>
</svg>
