<svg width="64" height="64" viewBox="0 0 64 64" fill="none" xmlns="http://www.w3.org/2000/svg">
<path d="M19.9855 58.8799L11.8982 62.9759C10.7292 63.5942 9.39428 63.9275 8.03052 63.9414C6.66675 63.9552 5.32339 63.6493 4.1385 63.0549C2.95361 62.4606 1.96995 61.5993 1.28863 60.5596C0.6073 59.5199 0.252889 58.3393 0.261823 57.1391L5.81819 42.3423C6.27098 41.1402 7.12832 40.0876 8.2765 39.3241C9.42469 38.5605 10.8095 38.1222 12.2473 38.0671L32.3491 37.4015C33.5162 37.2876 34.5945 36.7989 35.3777 36.029C36.1609 35.2591 36.5939 34.2621 36.5939 33.2287C36.5939 32.1954 36.1609 31.1984 35.3777 30.4285C34.5945 29.6586 33.5162 29.1699 32.3491 29.0559L12.2473 28.3647C10.8095 28.3097 9.42469 27.8713 8.2765 27.1078C7.12832 26.3443 6.27098 25.2917 5.81819 24.0895L0.290914 9.34393C0.280769 8.14255 0.633357 6.96034 1.31263 5.91818C1.9919 4.87602 2.97349 4.0113 4.15703 3.41243C5.34057 2.81356 6.68362 2.50202 8.04884 2.50966C9.41406 2.5173 10.7525 2.84386 11.9273 3.45594L35.4327 15.3599L58.9382 27.3151C60.1034 27.9122 61.0702 28.7678 61.7422 29.7965C62.4142 30.8252 62.7678 31.991 62.7678 33.1775C62.7678 34.3641 62.4142 35.5299 61.7422 36.5586C61.0702 37.5872 60.1034 38.4428 58.9382 39.0399L35.4327 50.9439L31.5636 52.9151L19.9855 58.8799Z" fill="#096AD9"/>
</svg>
