<svg id="abcf6679-8e34-483d-9281-d84000956e2b" height="512" viewBox="0 0 512 512" width="512" xmlns="http://www.w3.org/2000/svg" data-name="Layer 1"><path d="m461.16993 306.72325a204.28054 204.28054 0 0 1 -42.81259 125.4545c-37.52589 48.49318-96.29544 64.82225-162.35734 64.82225s-124.83147-16.32908-162.35736-64.82228a204.28052 204.28052 0 0 1 -42.81257-125.45447c0-113.31225 91.85771-205.16993 205.16993-205.16993s205.16993 91.85768 205.16993 205.16993z" fill="#cce4ff"/><path d="m92.4883 431.705a206.634 206.634 0 0 0 327.0234 0 61.80792 61.80792 0 0 0 -29.85325-37.26987l-133.65845-72.79982-133.65845 72.7998a61.80792 61.80792 0 0 0 -29.85325 37.26989z" fill="#343c4a"/><path d="m221.66206 243.21555h68.67589a0 0 0 0 1 0 0v106.62839a34.33791 34.33791 0 0 1 -34.33795 34.33791 34.33791 34.33791 0 0 1 -34.33791-34.33791v-106.62839a0 0 0 0 1 0 0z" fill="#ffb09e"/><path d="m355.60953 144.20973h19.66969a34.33791 34.33791 0 0 1 34.33791 34.33791v.00007a34.33791 34.33791 0 0 1 -34.33791 34.33791h-19.66969a0 0 0 0 1 0 0v-68.67589a0 0 0 0 1 0 0z" fill="#ffb09e"/><path d="m102.38289 144.20973h19.66969a34.33791 34.33791 0 0 1 34.33791 34.33791v.00007a34.33791 34.33791 0 0 1 -34.33791 34.33791h-19.66969a0 0 0 0 1 0 0v-68.67589a0 0 0 0 1 0 0z" fill="#ffb09e" transform="matrix(-1 0 0 -1 258.773 357.095)"/><path d="m371.05765 113.30266.00461 15.45784v75.6072c.34827 2.71435-2.01819 5.541-2.18552 8.184-.15451 2.44051 1.56748 4.953 1.26316 7.34983a115.08347 115.08347 0 0 1 -114.13979 100.4238h-.00023a115.06214 115.06214 0 0 1 -115.06214-115.06213v-76.501l.00611-15.4578z" fill="#ffcebf"/><path d="m319.75252 180.06036a111.43052 111.43052 0 0 1 -31.168-43.25956 7.72608 7.72608 0 1 0 -14.335 5.76862 125.85032 125.85032 0 0 0 95.89021 77.33211 116.17443 116.17443 0 0 0 .92254-14.63833v-.89549a110.82959 110.82959 0 0 1 -51.30975-24.30735z" fill="#243047"/><path d="m218.04628 188.29175a7.72632 7.72632 0 0 1 -2.72586-.499 38.32906 38.32906 0 0 0 -27.07495-.001 7.72615 7.72615 0 1 1 -5.45674-14.45674 53.77863 53.77863 0 0 1 37.98642-.001 7.72787 7.72787 0 0 1 -2.72887 14.95775z" fill="#343c4a"/><path d="m312.66 218.67545h-.00006a25.3406 25.3406 0 0 1 -25.34059-25.3406v-10.58871a5.15091 5.15091 0 0 1 5.1509-5.15091h40.37944a5.15091 5.15091 0 0 1 5.1509 5.15091v10.58871a25.3406 25.3406 0 0 1 -25.34059 25.3406z" fill="#343c4a"/><path d="m256 278.97082a36.28536 36.28536 0 0 1 -31.31036-18.06639 7.72633 7.72633 0 0 1 13.37424-7.74045 20.71185 20.71185 0 0 0 36.06791-.34708 7.72677 7.72677 0 0 1 13.52213 7.48089 36.1898 36.1898 0 0 1 -31.65392 18.67303z" fill="#ffb09e"/><path d="m387.94506 135.60071 12.0188-72.11351a10.30181 10.30181 0 0 0 -10.16173-11.9954l-46.0069.00035a10.26029 10.26029 0 0 1 -8.96012-5.23391 90.30608 90.30608 0 0 0 -157.67073.00088 10.26027 10.26027 0 0 1 -8.96 5.234l-46.00515.00027a10.30181 10.30181 0 0 0 -10.16159 11.9954l12.01881 72.11345a10.30182 10.30182 0 0 0 10.16171 8.60822l243.56533-.00153a10.30182 10.30182 0 0 0 10.16157-8.60822z" fill="#343c4a"/><path d="m303.92813 70.313c0-23.70687-23.4149-42.801-51.4088-41.09228-23.63068 1.44237-42.72673 17.91107-44.334 38.228-.85262 10.77781 3.14941 20.75824 10.30926 28.48566a18.82833 18.82833 0 0 1 5.35114 12.74249v.01378a7.45052 7.45052 0 0 0 7.45053 7.45053h6.16045l7.72636-15.45271 7.72636 15.45271h6.18108l7.72636-15.45271 7.72636 15.45271h6.16045a7.45052 7.45052 0 0 0 7.45053-7.45053 18.86547 18.86547 0 0 1 5.35845-12.76417 37.5711 37.5711 0 0 0 10.41547-25.61348z" fill="#fff"/><g fill="#243047"><path d="m252.90946 116.14085v-14.58753a7.72636 7.72636 0 0 0 -15.45272 0v14.5879h15.45272z"/><path d="m266.8169 93.827a7.7261 7.7261 0 0 0 -7.72636 7.72636v14.5879h15.45272v-14.5879a7.7261 7.7261 0 0 0 -7.72636-7.72636z"/><circle cx="240.547" cy="64.901" r="7.726"/><circle cx="271.453" cy="64.901" r="7.726"/></g></svg>