<svg id="f2c547c9-9dd4-49c1-ac10-b8535a87b8e2" height="512" viewBox="0 0 512 512" width="512" xmlns="http://www.w3.org/2000/svg" data-name="Layer 1"><path d="m467.70221 300.29779a210.88575 210.88575 0 0 1 -51.96707 138.93826c-38.81192 44.58367-95.9826 57.76395-159.73514 57.76395s-120.92324-13.18029-159.73516-57.764a210.88575 210.88575 0 0 1 -51.96705-138.93821c0-116.91991 94.78231-211.70222 211.70221-211.70222s211.70221 94.78231 211.70221 211.70222z" fill="#cce4ff"/><ellipse cx="256" cy="47.15" fill="#e88f37" rx="47.084" ry="47.15"/><path d="m256 512a211.20356 211.20356 0 0 0 159.731-72.76761 59.99274 59.99274 0 0 0 -30.17052-41.353l-129.56048-70.66712-129.56036 70.66713a59.99281 59.99281 0 0 0 -30.17059 41.353 211.20356 211.20356 0 0 0 159.73095 72.7676z" fill="#57aafe"/><path d="m222.7149 251.0901h66.5702a0 0 0 0 1 0 0v103.55135a33.28507 33.28507 0 0 1 -33.2851 33.28507 33.28506 33.28506 0 0 1 -33.28506-33.28506v-103.55136a0 0 0 0 1 -.00004 0z" fill="#ffb09e"/><path d="m392.69736 207.51721-273.3947-.86023 13.51334-65.20528a125.79654 125.79654 0 0 1 123.13011-100.341h.00021a125.79678 125.79678 0 0 1 123.15635 100.46787z" fill="#ffbc5b"/><path d="m342.93629 176.05812h19.18371a30.57734 30.57734 0 0 1 30.57734 30.57734v.04309a30.57734 30.57734 0 0 1 -30.57734 30.57735h-19.18371a0 0 0 0 1 0 0v-61.19778a0 0 0 0 1 0 0z" fill="#ffb09e"/><path d="m119.30266 176.05812h19.18373a30.57734 30.57734 0 0 1 30.57734 30.57734v.04309a30.57734 30.57734 0 0 1 -30.57734 30.57734h-19.18373a0 0 0 0 1 0 0v-61.19777a0 0 0 0 1 0 0z" fill="#ffb09e" transform="matrix(-1 0 0 -1 288.366 413.314)"/><path d="m256.0001 326.55576h-.0002a102.46105 102.46105 0 0 1 -102.3889-102.53302v-59.76837a6.9332 6.9332 0 0 1 8.03689-6.8616 151.979 151.979 0 0 0 123.10695-34.05466 6.95665 6.95665 0 0 1 9.70677.70458 95.79741 95.79741 0 0 0 57.98322 31.1296 6.94052 6.94052 0 0 1 5.9442 6.87614v61.97431a102.461 102.461 0 0 1 -102.38893 102.53302z" fill="#ffcebf"/><path d="m318.71831 208.05885a7.70625 7.70625 0 0 1 -2.73038-.501 33.19486 33.19486 0 0 0 -23.48441 0 7.72627 7.72627 0 0 1 -5.46278-14.45473 48.64224 48.64224 0 0 1 34.411 0 7.72766 7.72766 0 0 1 -2.7334 14.95573z" fill="#343c4a"/><path d="m193.28169 208.05885a7.7276 7.7276 0 0 1 -2.7329-14.95573 48.64085 48.64085 0 0 1 34.41047 0 7.72627 7.72627 0 0 1 -5.46278 14.45473 33.19615 33.19615 0 0 0 -23.48491 0 7.70362 7.70362 0 0 1 -2.72988.501z" fill="#343c4a"/><path d="m256 288.30181a33.13532 33.13532 0 0 1 -28.60111-16.52414 7.72643 7.72643 0 1 1 13.38029-7.73039 17.56238 17.56238 0 0 0 30.60915-.29577 7.72658 7.72658 0 0 1 13.52616 7.47284 33.04939 33.04939 0 0 1 -28.91449 17.07746z" fill="#ffb09e"/></svg>