<svg id="b6eeb783-6958-44c0-892b-91eaf1e6c87d" height="512" viewBox="0 0 512 512" width="512" xmlns="http://www.w3.org/2000/svg" data-name="Layer 1"><path d="m467.70221 300.29779a210.82542 210.82542 0 0 1 -47.56677 133.71679c-38.82 47.59357-97.92852 67.22247-164.13544 67.22247-65.76744 0-124.53041-19.22676-163.35971-66.277a210.83553 210.83553 0 0 1 -48.3425-134.66227c0-116.9199 94.78231-211.70221 211.70221-211.70221s211.70221 94.78231 211.70221 211.70222z" fill="#cce4ff"/><path d="m255.99985 0h.00031a153.617 153.617 0 0 1 153.617 153.617v158.02167a53.56942 53.56942 0 0 1 -53.56942 53.56942h-200.09544a53.56942 53.56942 0 0 1 -53.56942-53.56942v-158.02167a153.617 153.617 0 0 1 153.61697-153.617z" fill="#343c4a"/><path d="m256 512a211.27588 211.27588 0 0 0 164.12682-77.99245 61.81263 61.81263 0 0 0 -30.46831-39.57244l-133.65851-72.79986-133.65851 72.79986a61.813 61.813 0 0 0 -30.46831 39.5725 211.27612 211.27612 0 0 0 164.12682 77.99239z" fill="#7177db"/><g fill="#ffb09e"><path d="m221.66206 243.21555h68.67589a0 0 0 0 1 0 0v106.62839a34.33791 34.33791 0 0 1 -34.33795 34.33791 34.33791 34.33791 0 0 1 -34.33791-34.33791v-106.62839a0 0 0 0 1 0 0z"/><path d="m355.60953 151.4375h19.66969a34.33791 34.33791 0 0 1 34.33791 34.33791v.00007a34.33791 34.33791 0 0 1 -34.33791 34.33791h-19.66969a0 0 0 0 1 0 0v-68.67589a0 0 0 0 1 0 0z"/><path d="m102.38289 151.4375h19.66969a34.33791 34.33791 0 0 1 34.33791 34.33791v.00007a34.33791 34.33791 0 0 1 -34.33791 34.33791h-19.66969a0 0 0 0 1 0 0v-68.67589a0 0 0 0 1 0 0z" transform="matrix(-1 0 0 -1 258.773 371.551)"/></g><path d="m256.00011 320.32533h-.00023a115.06213 115.06213 0 0 1 -115.06213-115.06213v-64.15029a10.30526 10.30526 0 0 1 11.82555-10.18691 171.58882 171.58882 0 0 0 70.88434-4.40527 171.57385 171.57385 0 0 0 62.91836-32.78753 10.279 10.279 0 0 1 14.06823.88322 107.86247 107.86247 0 0 0 24.17577 19.48645 108.226 108.226 0 0 0 37.551 13.58494 10.331 10.331 0 0 1 8.70126 10.17663v67.39875a115.06215 115.06215 0 0 1 -115.06215 115.06214z" fill="#ffcebf"/><path d="m326.48139 188.29225a7.70714 7.70714 0 0 1 -2.72636-.49949 38.32169 38.32169 0 0 0 -27.07495 0 7.72644 7.72644 0 1 1 -5.45573-14.45775 53.77136 53.77136 0 0 1 37.98641 0 7.72766 7.72766 0 0 1 -2.72937 14.95724z" fill="#554e56"/><path d="m185.51861 188.29225a7.72776 7.72776 0 0 1 -2.72988-14.95724 53.77138 53.77138 0 0 1 37.98642 0 7.72626 7.72626 0 1 1 -5.45473 14.45775 37.60851 37.60851 0 0 0 -13.80784-2.46982 38.20325 38.20325 0 0 0 -13.26711 2.46982 7.71183 7.71183 0 0 1 -2.72686.49949z" fill="#554e56"/><path d="m256 278.97082a36.286 36.286 0 0 1 -31.31087-18.0669 7.72652 7.72652 0 0 1 13.37526-7.73943 20.7119 20.7119 0 0 0 36.0674-.34709 7.72652 7.72652 0 0 1 13.52213 7.47988 36.19028 36.19028 0 0 1 -31.65392 18.67354z" fill="#ffb09e"/></svg>