<svg id="bba82463-c1e8-456c-bfac-4d00103177a5" height="512" viewBox="0 0 512 512" width="512" xmlns="http://www.w3.org/2000/svg" data-name="Layer 1"><path d="m464.1018 303.77143a207.44378 207.44378 0 0 1 -46.7578 131.52277c-38.15983 46.81264-96.26308 61.7058-161.344 61.7058-64.64894 0-122.41252-14.49764-160.58146-60.77586a207.45293 207.45293 0 0 1 -47.52034-132.45271c0-115.00143 93.17035-208.22857 208.1018-208.22857s208.1018 93.22714 208.1018 208.22857z" fill="#cce4ff"/><path d="m255.99985 39.30641h.0003a151.0044 151.0044 0 0 1 151.0044 151.0044v136.5495a46.91141 46.91141 0 0 1 -46.91141 46.91141h-208.18628a46.91141 46.91141 0 0 1 -46.91141-46.91141v-136.54951a151.0044 151.0044 0 0 1 151.0044-151.0044z" fill="#343c4a"/><path d="m256 512a207.63486 207.63486 0 0 0 161.33552-76.71268 60.79373 60.79373 0 0 0 -29.95014-38.92319l-131.38538-71.60535-131.38538 71.60535a60.79373 60.79373 0 0 0 -29.95014 38.92319 207.63486 207.63486 0 0 0 161.33552 76.71268z" fill="#8fd17a"/><g fill="#ffb09e"><path d="m222.246 247.62581h67.508a0 0 0 0 1 0 0v104.89937a33.75392 33.75392 0 0 1 -33.754 33.75393 33.75392 33.75392 0 0 1 -33.754-33.75393v-104.89937a0 0 0 0 1 0 0z"/><path d="m353.91547 161.37611h19.32489a33.7642 33.7642 0 0 1 33.7642 33.7642v.02063a33.7642 33.7642 0 0 1 -33.7642 33.7642h-19.32489a0 0 0 0 1 0 0v-67.549a0 0 0 0 1 0-.00003z"/><path d="m104.99544 161.37611h19.32489a33.7642 33.7642 0 0 1 33.7642 33.7642v.02063a33.7642 33.7642 0 0 1 -33.7642 33.7642h-19.32489a0 0 0 0 1 0 0v-67.549a0 0 0 0 1 0-.00003z" transform="matrix(-1 0 0 -1 263.08 390.301)"/></g><path d="m255.60016 323.46966c-62.511-.21629-112.70567-51.85264-112.70567-114.40213v-39.9122a8.09088 8.09088 0 0 1 7.53612-8.08474 198.21162 198.21162 0 0 0 55.97744-12.032 198.105 198.105 0 0 0 44.59372-23.48121 8.0658 8.0658 0 0 1 9.71231.33377 160.86206 160.86206 0 0 0 44.99555 25.64712 160.94429 160.94429 0 0 0 55.2984 10.05992 8.11406 8.11406 0 0 1 8.09748 8.10543v40.59258a113.13954 113.13954 0 0 1 -113.50535 113.17346z" fill="#ffcebf"/><path d="m325.2837 193.73038a7.713 7.713 0 0 1 -2.72736-.5 37.51732 37.51732 0 0 0 -26.52012 0 7.7265 7.7265 0 1 1 -5.45876-14.45674 52.9635 52.9635 0 0 1 37.43562 0 7.72755 7.72755 0 0 1 -2.72938 14.95674z" fill="#343c4a"/><path d="m218.69215 193.73038a7.713 7.713 0 0 1 -2.72736-.5 37.51732 37.51732 0 0 0 -26.52012 0 7.7265 7.7265 0 1 1 -5.45875-14.45674 52.96347 52.96347 0 0 1 37.43561 0 7.72755 7.72755 0 0 1 -2.72938 14.95674z" fill="#343c4a"/><path d="m256 282.92153a35.79619 35.79619 0 0 1 -30.89235-17.835 7.72619 7.72619 0 1 1 13.37625-7.73642 20.22041 20.22041 0 0 0 35.22435-.34 7.72623 7.72623 0 0 1 13.52314 7.47686 35.70366 35.70366 0 0 1 -31.23139 18.43456z" fill="#ffb09e"/><path d="m376.9632 98.60626h-241.9264l14.24252-76.74257a9.27163 9.27163 0 0 1 7.77241-7.48195l97.45543-14.273a10.30138 10.30138 0 0 1 2.98568 0l97.45543 14.273a9.27163 9.27163 0 0 1 7.77241 7.48195z" fill="#8fd17a"/><path d="m275.77465 43.46278h-12.04829v-12.04829a7.72636 7.72636 0 0 0 -15.45272 0v12.04829h-12.04829a7.72636 7.72636 0 1 0 0 15.45271h12.04829v12.04729a7.72636 7.72636 0 0 0 15.45272 0v-12.04729h12.04829a7.72635 7.72635 0 1 0 0-15.45271z" fill="#fff"/></svg>