<svg id="b2123708-47d1-400e-b92c-102811ef5d62" height="512" viewBox="0 0 512 512" width="512" xmlns="http://www.w3.org/2000/svg" data-name="Layer 1"><path d="m464.02409 303.97591a207.13282 207.13282 0 0 1 -44.32575 128.37677c-38.08452 48.49538-101.25769 59.954-167.70256 59.954s-121.60957-11.45862-159.69409-59.954a207.13279 207.13279 0 0 1 -44.32578-128.3768c0-114.8885 93.13556-208.02406 208.02409-208.02406s208.02409 93.13556 208.02409 208.02409z" fill="#cce4ff"/><path d="m102.38289 129.06322h19.66969a34.33791 34.33791 0 0 1 34.33791 34.33791v.00007a34.33791 34.33791 0 0 1 -34.33791 34.33791h-19.66969a0 0 0 0 1 0 0v-68.67589a0 0 0 0 1 0 0z" fill="#ffb09e" transform="matrix(-1 0 0 -1 258.773 326.802)"/><path d="m206.19746 0h99.60512a65.25969 65.25969 0 0 1 65.25969 65.25969v116.46193a0 0 0 0 1 0 0h-230.1245a0 0 0 0 1 0 0v-116.46193a65.25969 65.25969 0 0 1 65.25969-65.25969z" fill="#ffbc5b"/><path d="m256 512a207.65879 207.65879 0 0 0 163.69769-79.64782 61.812 61.812 0 0 0 -30.03918-37.91707l-133.65851-72.79986-133.65851 72.79986a61.812 61.812 0 0 0 -30.03918 37.91707 207.65879 207.65879 0 0 0 163.69769 79.64782z" fill="#f96263"/><path d="m221.66206 243.21555h68.67589a0 0 0 0 1 0 0v106.62839a34.33791 34.33791 0 0 1 -34.33795 34.33791 34.33791 34.33791 0 0 1 -34.33791-34.33791v-106.62839a0 0 0 0 1 0 0z" fill="#ffb09e"/><path d="m355.60953 129.06322h19.66969a34.33791 34.33791 0 0 1 34.33791 34.33791v.00007a34.33791 34.33791 0 0 1 -34.33791 34.33791h-19.66969a0 0 0 0 1 0 0v-68.67589a0 0 0 0 1 0 0z" fill="#ffb09e"/><path d="m256.00011 320.32533h-.00023a115.06214 115.06214 0 0 1 -115.06214-115.06213v-76.50746a171.69756 171.69756 0 0 0 82.70991-2.235 171.57348 171.57348 0 0 0 62.91835-32.78755 10.279 10.279 0 0 1 14.06824.88322 107.86252 107.86252 0 0 0 24.17576 19.48646 108.56262 108.56262 0 0 0 46.25228 14.65288v76.50744a115.06213 115.06213 0 0 1 -115.06217 115.06214z" fill="#ffcebf"/><path d="m326.48139 188.29225a7.70714 7.70714 0 0 1 -2.72636-.49949 38.32169 38.32169 0 0 0 -27.07495 0 7.72644 7.72644 0 1 1 -5.45573-14.45775 53.77136 53.77136 0 0 1 37.98641 0 7.72766 7.72766 0 0 1 -2.72937 14.95724z" fill="#554e56"/><path d="m185.51861 188.29225a7.72776 7.72776 0 0 1 -2.72988-14.95724 53.77138 53.77138 0 0 1 37.98642 0 7.72626 7.72626 0 1 1 -5.45473 14.45775 37.55836 37.55836 0 0 0 -13.80784-2.46982 38.20325 38.20325 0 0 0 -13.26711 2.46982 7.71183 7.71183 0 0 1 -2.72686.49949z" fill="#554e56"/><path d="m256 278.97082a36.286 36.286 0 0 1 -31.31087-18.0669 7.72652 7.72652 0 0 1 13.37526-7.73943 20.7119 20.7119 0 0 0 36.0674-.34709 7.72652 7.72652 0 0 1 13.52213 7.47988 36.19028 36.19028 0 0 1 -31.65392 18.67354z" fill="#ffb09e"/></svg>