<svg id="ba40def1-7df2-485b-a384-53e80e9d8290" height="512" viewBox="0 0 512 512" width="512" xmlns="http://www.w3.org/2000/svg" data-name="Layer 1"><path d="m462.64149 305.35851a205.74567 205.74567 0 0 1 -43.11966 126.35431c-37.79504 48.84099-96.98611 65.28718-163.52183 65.28718s-125.72682-16.4462-163.52185-65.28721a205.74569 205.74569 0 0 1 -43.11964-126.35428c0-114.12495 92.51655-206.64151 206.64149-206.64151s206.64149 92.51656 206.64149 206.64151z" fill="#cce4ff"/><path d="m355.60953 128.75574h19.66969a34.33791 34.33791 0 0 1 34.33791 34.33791v.00007a34.33791 34.33791 0 0 1 -34.33791 34.33791h-19.66969a0 0 0 0 1 0 0v-68.67589a0 0 0 0 1 0 0z" fill="#a56362"/><path d="m102.38289 128.75574h19.66969a34.33791 34.33791 0 0 1 34.33791 34.33791v.00007a34.33791 34.33791 0 0 1 -34.33791 34.33791h-19.66969a0 0 0 0 1 0 0v-68.67589a0 0 0 0 1 0 0z" fill="#a56362" transform="matrix(-1 0 0 -1 258.773 326.187)"/><path d="m371.35714 128.75574h-230.41937v-49.02684a46.33061 46.33061 0 0 1 37.18123-45.41821l214.629-33.89785a20.60362 20.60362 0 0 1 24.67245 20.19787v62.08176a46.06327 46.06327 0 0 1 -46.06331 46.06327z" fill="#343c4a"/><path d="m92.4883 431.705a206.634 206.634 0 0 0 327.0234 0 61.808 61.808 0 0 0 -29.85319-37.26987l-133.65851-72.79982-133.65851 72.7998a61.808 61.808 0 0 0 -29.85319 37.26989z" fill="#ffbc5b"/><path d="m221.66206 243.21555h68.67589a0 0 0 0 1 0 0v106.62839a34.33791 34.33791 0 0 1 -34.33795 34.33791 34.33791 34.33791 0 0 1 -34.33791-34.33791v-106.62839a0 0 0 0 1 0 0z" fill="#a56362"/><path d="m371.06226 128.75575v76.50744a115.06213 115.06213 0 0 1 -115.06215 115.06214h-.00023a115.06214 115.06214 0 0 1 -115.06214-115.06213v-76.50746z" fill="#cc938b"/><path d="m326.48139 188.29225a7.70714 7.70714 0 0 1 -2.72636-.49949 37.65463 37.65463 0 0 0 -13.80684-2.46982 38.21526 38.21526 0 0 0 -13.26811 2.46982 7.72644 7.72644 0 1 1 -5.45573-14.45775 53.77136 53.77136 0 0 1 37.98641 0 7.72766 7.72766 0 0 1 -2.72937 14.95724z" fill="#343c4a"/><path d="m185.51861 188.29225a7.72776 7.72776 0 0 1 -2.72988-14.95724 53.77138 53.77138 0 0 1 37.98642 0 7.72626 7.72626 0 1 1 -5.45473 14.45775 37.345 37.345 0 0 0 -13.80784-2.46982 38.20325 38.20325 0 0 0 -13.26711 2.46982 7.71183 7.71183 0 0 1 -2.72686.49949z" fill="#343c4a"/><path d="m256 278.97082a36.286 36.286 0 0 1 -31.31087-18.0669 7.72652 7.72652 0 0 1 13.37526-7.73943 20.7119 20.7119 0 0 0 36.0674-.34709 7.72652 7.72652 0 0 1 13.52213 7.47988 36.19028 36.19028 0 0 1 -31.65392 18.67354z" fill="#a56362"/></svg>