<svg id="a6462660-bb27-48f0-9d86-75be531512dc" height="512" viewBox="0 0 512 512" width="512" xmlns="http://www.w3.org/2000/svg" data-name="Layer 1"><path d="m467.70221 300.29779a210.82541 210.82541 0 0 1 -47.5668 133.71682c-38.82001 47.59356-97.92851 62.98539-164.13541 62.98539-65.76744 0-124.53041-14.98971-163.35971-62.03994a210.83553 210.83553 0 0 1 -48.3425-134.66227c0-116.91991 94.78231-211.70222 211.70221-211.70222s211.70221 94.78231 211.70221 211.70222z" fill="#cce4ff"/><path d="m255.99985 0h.00031a153.617 153.617 0 0 1 153.617 153.617v279.4019a0 0 0 0 1 0 0h-307.23427a0 0 0 0 1 0 0v-279.4019a153.617 153.617 0 0 1 153.61696-153.617z" fill="#343c4a"/><path d="m256 512a211.27612 211.27612 0 0 0 164.12682-77.99239 61.813 61.813 0 0 0 -30.46831-39.5725l-133.65851-72.79986-133.65851 72.79986a61.813 61.813 0 0 0 -30.46831 39.5725 211.27612 211.27612 0 0 0 164.12682 77.99239z" fill="#ffbc5b"/><path d="m221.66206 243.21555h68.67589a0 0 0 0 1 0 0v106.62839a34.33791 34.33791 0 0 1 -34.33795 34.33791 34.33791 34.33791 0 0 1 -34.33791-34.33791v-106.62839a0 0 0 0 1 -.00003 0z" fill="#e58a7b"/><path d="m387.34809 279.17907a7.72577 7.72577 0 0 1 -7.72636-7.72635v-68.339a7.72636 7.72636 0 0 1 15.45272 0v68.339a7.72578 7.72578 0 0 1 -7.72636 7.72635z" fill="#ffbc5b"/><path d="m124.65191 279.17907a7.72578 7.72578 0 0 1 -7.72636-7.72635v-68.339a7.72636 7.72636 0 1 1 15.45272 0v68.339a7.72577 7.72577 0 0 1 -7.72636 7.72635z" fill="#ffbc5b"/><circle cx="387.348" cy="292.018" fill="#f96263" r="20.565"/><circle cx="122.948" cy="292.018" fill="#f96263" r="20.565"/><path d="m355.60953 151.4375h19.66969a34.33791 34.33791 0 0 1 34.33791 34.33791v.00007a34.33791 34.33791 0 0 1 -34.33791 34.33791h-19.66969a0 0 0 0 1 0 0v-68.67589a0 0 0 0 1 0 0z" fill="#e58a7b"/><path d="m102.38289 151.4375h19.66969a34.33791 34.33791 0 0 1 34.33791 34.33791v.00007a34.33791 34.33791 0 0 1 -34.33791 34.33791h-19.66969a0 0 0 0 1 0 0v-68.67589a0 0 0 0 1 0 0z" fill="#e58a7b" transform="matrix(-1 0 0 -1 258.773 371.551)"/><path d="m255.59324 320.32462c-63.59255-.21989-114.65561-52.71763-114.65561-116.31057v-67.40686a8.22791 8.22791 0 0 1 7.6665-8.2196 201.74738 201.74738 0 0 0 56.94592-12.23272 201.574 201.574 0 0 0 45.36524-23.87293 8.20934 8.20934 0 0 1 9.88035.33934 163.66916 163.66916 0 0 0 45.774 26.075 163.81812 163.81812 0 0 0 56.25515 10.22772 8.25192 8.25192 0 0 1 8.23758 8.24065v68.09855a115.06222 115.06222 0 0 1 -115.46913 115.06142z" fill="#f9beac"/><path d="m293.95372 188.29225a7.72787 7.72787 0 0 1 -2.72937-14.95724 53.77006 53.77006 0 0 1 37.98591 0 7.72626 7.72626 0 1 1 -5.45473 14.45775 38.32027 38.32027 0 0 0 -27.07444 0 7.71255 7.71255 0 0 1 -2.72737.49949z" fill="#343c4a"/><path d="m185.51811 188.29225a7.72787 7.72787 0 0 1 -2.72938-14.95724 53.63091 53.63091 0 0 1 18.6157-3.46479c.12776-.0005.25654-.001.3833-.001a53.57681 53.57681 0 0 1 18.98692 3.46579 7.72626 7.72626 0 1 1 -5.45473 14.45775 38.3203 38.3203 0 0 0 -27.07445 0 7.71249 7.71249 0 0 1 -2.72736.49949z" fill="#343c4a"/><path d="m256 278.97082a36.28214 36.28214 0 0 1 -31.30986-18.0674 7.726 7.726 0 1 1 13.37425-7.73893 20.71253 20.71253 0 0 0 36.06841-.34759 7.72633 7.72633 0 1 1 13.52112 7.48089 36.19039 36.19039 0 0 1 -31.65392 18.67303z" fill="#e58a7b"/><path d="m266.90591 151.83524a11.86772 11.86772 0 1 1 -23.73545 0c0-6.55436 5.31336-27.32044 11.86772-27.32044s11.86773 20.76608 11.86773 27.32044z" fill="#f96263"/></svg>