<svg id="fa52693b-ef35-4e45-a0f6-af9e02ddbcb6" height="512" viewBox="0 0 512 512" width="512" xmlns="http://www.w3.org/2000/svg" data-name="Layer 1"><path d="m462.64149 305.35851a205.74568 205.74568 0 0 1 -43.11967 126.35432c-37.79504 48.84099-96.9861 65.28717-163.52182 65.28717s-125.72679-16.44619-163.52183-65.28718a205.74571 205.74571 0 0 1 -43.11966-126.35431c0-114.12494 92.51655-206.64151 206.64149-206.64151s206.64149 92.51657 206.64149 206.64151z" fill="#cce4ff"/><path d="m92.48831 431.705a206.634 206.634 0 0 0 327.02338 0 61.808 61.808 0 0 0 -29.85318-37.26987l-133.65851-72.79981-133.65851 72.79979a61.808 61.808 0 0 0 -29.85318 37.26989z" fill="#bcbc50"/><path d="m221.66206 243.21556h68.67588a0 0 0 0 1 0 0v106.62838a34.33791 34.33791 0 0 1 -34.33794 34.33791 34.33791 34.33791 0 0 1 -34.33791-34.33791v-106.62838a0 0 0 0 1 0 0z" fill="#ffb09e"/><path d="m102.38289 133.03408h19.66969a34.33791 34.33791 0 0 1 34.33791 34.33792v.00007a34.33791 34.33791 0 0 1 -34.33791 34.33793h-19.66969a0 0 0 0 1 0 0v-68.67592a0 0 0 0 1 0 0z" fill="#ffb09e" transform="matrix(-1 0 0 -1 258.773 334.744)"/><path d="m355.60953 133.03408h19.66969a34.33791 34.33791 0 0 1 34.33791 34.33792v.00007a34.33791 34.33791 0 0 1 -34.33791 34.33793h-19.66969a0 0 0 0 1 0 0v-68.67592a0 0 0 0 1 0 0z" fill="#ffb09e"/><path d="m371.06225 97.85033v28.66905l-3.62562 12.36269 3.62562 7.333v59.04813a115.06214 115.06214 0 0 1 -115.06214 115.06213h-.00023a115.06214 115.06214 0 0 1 -115.06214-115.06212v-59.04816l2.69105-7.75543-2.69105-11.94024v-44.12178h214.6718a15.45271 15.45271 0 0 1 15.45271 15.45273z" fill="#ffcebf"/><path d="m256 275.52516a36.28216 36.28216 0 0 1 -31.30986-18.06741 7.72583 7.72583 0 0 1 13.37425-7.73843 20.71278 20.71278 0 0 0 36.06841-.34809 7.72633 7.72633 0 1 1 13.52112 7.48089 36.1904 36.1904 0 0 1 -31.65392 18.67304z" fill="#ffb09e"/><path d="m139.8408 129.775a10.302 10.302 0 0 0 15.709-1.57018c8.81615-12.70787 21.15493-25.0376 37.65166-28.05558 15.59054-2.85224 26.13808 4.889 55.72208 15.92065 16.46529 6.13971 49.16675 18.334 76.8501 14.52955 51.8672-7.12789 90.50654-71.01974 80.70976-84.88091-7.39185-10.45825-38.6001 17.10526-69.65191-.71038-21.69593-12.44781-24.94794-34.39814-48.06992-42.41135-18.77264-6.506-38.69744.31489-53.9326 8.333a10.22622 10.22622 0 0 1 -9.465.04075c-9.89667-5.11555-32.18841-14.1061-57.03851-6.34503-33.7236 10.53257-55.3574 46.66838-51.13959 80.92316 2.55206 20.72648 13.93159 35.58865 22.65493 44.22632z" fill="#343c4a"/><path d="m167.04286 157.0005h73.50442a0 0 0 0 1 0 0v40.44333a19.37035 19.37035 0 0 1 -19.37035 19.37035h-34.76372a19.37035 19.37035 0 0 1 -19.37035-19.37035v-40.44333a0 0 0 0 1 0 0z" fill="#343c4a"/><path d="m221.17706 224.54025h-34.76358a27.12787 27.12787 0 0 1 -27.09658-27.09658v-40.44367a7.72578 7.72578 0 0 1 7.72636-7.72636h73.504a7.72577 7.72577 0 0 1 7.72638 7.72636v40.44366a27.12786 27.12786 0 0 1 -27.09658 27.09659zm-46.40744-59.81388v32.7173a11.657 11.657 0 0 0 11.64386 11.64386h34.76358a11.657 11.657 0 0 0 11.64387-11.64386v-32.7173z" fill="#243047"/><path d="m240.54728 194.63381h-73.504a7.72636 7.72636 0 1 1 0-15.45271h73.504a7.72636 7.72636 0 1 1 0 15.45271z" fill="#243047"/><path d="m271.45272 157.0005h73.50442a0 0 0 0 1 0 0v40.44333a19.37035 19.37035 0 0 1 -19.37035 19.37035h-34.76372a19.37035 19.37035 0 0 1 -19.37035-19.37035v-40.44333a0 0 0 0 1 0 0z" fill="#343c4a"/><g fill="#243047"><path d="m325.58652 224.54025h-34.76358a27.12786 27.12786 0 0 1 -27.09658-27.09658v-40.44367a7.72577 7.72577 0 0 1 7.72636-7.72636h73.504a7.72578 7.72578 0 0 1 7.72638 7.72636v40.44366a27.12787 27.12787 0 0 1 -27.09658 27.09659zm-46.40745-59.81388v32.7173a11.657 11.657 0 0 0 11.64387 11.64386h34.76358a11.657 11.657 0 0 0 11.64386-11.64386v-32.7173z"/><path d="m344.95674 194.63381h-73.504a7.72636 7.72636 0 1 1 0-15.45271h73.504a7.72635 7.72635 0 1 1 0 15.45271z"/><path d="m271.45272 164.72637h-30.90544a7.72636 7.72636 0 0 1 0-15.45272h30.90544a7.72636 7.72636 0 0 1 0 15.45272z"/><path d="m371.06237 126.51938-30.89637 24.41926a7.726 7.726 0 1 0 9.58149 12.12274l21.31489-16.84633z"/><path d="m171.834 150.93864-30.89638-24.41926v19.69567l21.31489 16.84633a7.726 7.726 0 0 0 9.58149-12.12274z"/></g></svg>