<svg width="64" height="64" viewBox="0 0 64 64" fill="none" xmlns="http://www.w3.org/2000/svg">
<g clip-path="url(#clip0_307_66)">
<g opacity="0.4">
<path d="M56 24.1385H52V34.1385C52 39.6605 47.522 44.1385 42 44.1385H24V48.1385C24 52.5566 27.582 56.1385 32 56.1385H44L52.72 63.3985C53.568 64.1045 54.83 63.9906 55.536 63.1426C55.836 62.7826 56 62.3286 56 61.8586V56.1385C60.418 56.1385 64 52.5566 64 48.1385V32.1385C64 27.7205 60.418 24.1385 56 24.1385Z" fill="#10A37F"/>
</g>
<rect x="4.625" y="11.875" width="38.875" height="16.375" fill="white"/>
<path d="M40 0.13855H8C3.582 0.13855 0 3.72055 0 8.13855V32.1385C0 36.5566 3.582 40.1385 8 40.1385V47.7985C8 48.9025 8.896 49.7985 10 49.7985C10.476 49.7985 10.938 49.6286 11.3 49.3186L22 40.1385H40C44.418 40.1385 48 36.5566 48 32.1385V8.13855C48 3.72055 44.418 0.13855 40 0.13855ZM14.82 22.9585C14.644 23.1525 14.442 23.3205 14.22 23.4585C14.004 23.6045 13.778 23.7325 13.54 23.8385C13.292 23.9305 13.038 24.0045 12.78 24.0585C12.524 24.1145 12.262 24.1405 12 24.1385C9.79 24.1385 8 22.3485 8 20.1385C7.958 17.9305 9.714 16.1045 11.922 16.0625C12.21 16.0565 12.498 16.0825 12.78 16.1385C13.038 16.1925 13.292 16.2665 13.54 16.3585C13.782 16.4585 14.01 16.5846 14.22 16.7386C14.438 16.8766 14.638 17.0365 14.82 17.2185C15.596 17.9905 16.022 19.0445 16 20.1385C15.996 21.1985 15.572 22.2125 14.82 22.9585ZM26.82 22.9585C26.074 23.7105 25.06 24.1345 24 24.1385C23.74 24.1685 23.48 24.1685 23.22 24.1385C22.962 24.0845 22.708 24.0106 22.46 23.9186C22.222 23.8126 21.996 23.6845 21.78 23.5385C21.556 23.3945 21.348 23.2285 21.16 23.0385C20.396 22.2685 19.978 21.2225 20 20.1385C19.97 19.8785 19.97 19.6185 20 19.3585C20.054 19.1005 20.128 18.8465 20.22 18.5985C20.32 18.3565 20.446 18.1286 20.6 17.9186C20.742 17.6986 20.904 17.4905 21.08 17.2985C21.272 17.1225 21.48 16.9606 21.7 16.8186C21.91 16.6646 22.138 16.5385 22.38 16.4385C22.652 16.3145 22.932 16.2145 23.22 16.1385C25.386 15.7065 27.492 17.1146 27.924 19.2806C27.98 19.5626 28.006 19.8505 28 20.1385C28 21.1945 27.584 22.2085 26.84 22.9585H26.82ZM38.82 22.9585C38.644 23.1525 38.442 23.3205 38.22 23.4585C38.004 23.6045 37.778 23.7325 37.54 23.8385C37.292 23.9305 37.038 24.0045 36.78 24.0585C36.524 24.1145 36.262 24.1405 36 24.1385C33.79 24.1385 32 22.3485 32 20.1385C31.958 17.9305 33.714 16.1045 35.922 16.0625C36.21 16.0565 36.498 16.0825 36.78 16.1385C37.038 16.1925 37.292 16.2665 37.54 16.3585C37.782 16.4585 38.01 16.5846 38.22 16.7386C38.438 16.8766 38.638 17.0365 38.82 17.2185C39.596 17.9905 40.022 19.0445 40 20.1385C39.996 21.1985 39.572 22.2125 38.82 22.9585Z" fill="#10A37F"/>
</g>
<defs>
<clipPath id="clip0_307_66">
<rect width="64" height="64" fill="white"/>
</clipPath>
</defs>
</svg>
