<svg width="64" height="64" viewBox="0 0 64 64" fill="none" xmlns="http://www.w3.org/2000/svg">
<path d="M11.1763 43.6974L19.6377 51.715L7.85743 54.8715L11.1763 43.6974Z" fill="white"/>
<circle cx="32" cy="30.75" r="26.75" fill="white"/>
<path d="M32 59.4666C27.1934 59.4975 22.4581 58.3045 18.24 56C18.1555 55.9648 18.0648 55.9466 17.9733 55.9466C17.8818 55.9466 17.7911 55.9648 17.7066 56L8.2933 58.6666C7.71716 58.85 7.1018 58.8718 6.51412 58.7298C5.92643 58.5878 5.38893 58.2874 4.96004 57.8613C4.53116 57.4352 4.22732 56.8996 4.08155 56.3129C3.93579 55.7261 3.95369 55.1106 4.1333 54.5333L6.95996 45.0666C7.02135 44.9033 7.02135 44.7233 6.95996 44.56C4.06904 39.2763 2.91573 33.2162 3.66375 27.24C4.41176 21.2637 7.02308 15.6749 11.1271 11.2667C15.2311 6.85849 20.6193 3.8549 26.5269 2.6822C32.4345 1.50951 38.5614 2.2273 44.038 4.73369C49.5146 7.24009 54.0626 11.4078 57.0366 16.6452C60.0106 21.8826 61.2594 27.9236 60.6059 33.911C59.9523 39.8983 57.4295 45.5276 53.3956 50.0001C49.3617 54.4725 44.0217 57.5608 38.1333 58.8266C36.1156 59.246 34.0607 59.4605 32 59.4666ZM17.8933 51.8133C18.685 51.8241 19.4624 52.0254 20.16 52.4C23.6109 54.2925 27.4647 55.3318 31.3992 55.431C35.3338 55.5302 39.2351 54.6864 42.777 52.9702C46.3189 51.2539 49.3988 48.715 51.7592 45.5656C54.1197 42.4161 55.6922 38.7475 56.3455 34.8663C56.9987 30.985 56.7137 27.0038 55.5143 23.2551C54.3149 19.5065 52.2358 16.0993 49.4509 13.3182C46.6659 10.537 43.2558 8.4627 39.5055 7.26844C35.7553 6.07419 31.7736 5.79469 27.8933 6.4533C24.0054 7.09923 20.3296 8.66932 17.1748 11.0315C14.02 13.3937 11.4786 16.4789 9.76432 20.0277C8.05003 23.5765 7.213 27.485 7.32361 31.4246C7.43423 35.3642 8.48925 39.2196 10.4 42.6666C10.7004 43.2108 10.8904 43.8089 10.959 44.4267C11.0277 45.0445 10.9736 45.6698 10.8 46.2666L8.31996 54.5066L16.56 52.0266C16.9915 51.8905 17.4408 51.8186 17.8933 51.8133Z" fill="black"/>
<path d="M21.3333 35.3333C23.1743 35.3333 24.6667 33.8409 24.6667 32C24.6667 30.159 23.1743 28.6666 21.3333 28.6666C19.4924 28.6666 18 30.159 18 32C18 33.8409 19.4924 35.3333 21.3333 35.3333Z" fill="black"/>
<path d="M32 35.3333C33.8409 35.3333 35.3333 33.8409 35.3333 32C35.3333 30.159 33.8409 28.6666 32 28.6666C30.159 28.6666 28.6666 30.159 28.6666 32C28.6666 33.8409 30.159 35.3333 32 35.3333Z" fill="black"/>
<path d="M42.6667 35.3333C44.5077 35.3333 46 33.8409 46 32C46 30.159 44.5077 28.6666 42.6667 28.6666C40.8258 28.6666 39.3334 30.159 39.3334 32C39.3334 33.8409 40.8258 35.3333 42.6667 35.3333Z" fill="black"/>
</svg>
