<svg width="64" height="58" viewBox="0 0 64 58" fill="none" xmlns="http://www.w3.org/2000/svg">
<path d="M60.0065 43.2176C66.191 34.5405 65.2456 22.6524 56.7984 14.9085C52.9387 11.3704 48.0184 9.16775 42.7032 8.55262C42.6701 8.51187 42.6362 8.4715 42.5991 8.43287C37.9752 3.62975 31.3322 0.875 24.3735 0.875C11.1311 0.875 0 10.7416 0 23.375C0 27.8044 1.37587 32.0505 3.9895 35.7176L0.338375 47.1809C0.108875 47.9014 0.334625 48.689 0.91075 49.1786C1.48787 49.6691 2.302 49.7634 2.97462 49.4212L14.078 43.7754C16.3582 44.7572 18.7762 45.4015 21.2802 45.6946C26.1105 50.7741 32.7894 53.375 39.6225 53.375C43.1745 53.375 46.7136 52.6511 49.9175 51.2752L61.0214 56.9214C61.2902 57.0581 61.5814 57.125 61.8707 57.125C63.1361 57.125 64.0432 55.8919 63.6576 54.6809L60.0065 43.2176ZM14.8347 40.0026C14.3096 39.7532 13.6987 39.7615 13.1806 40.025L5.27225 44.0462L7.85475 35.938C8.04275 35.3476 7.92712 34.7026 7.54562 34.2145C5.06237 31.0357 3.74975 27.2876 3.74975 23.375C3.74975 13.0362 13.0015 4.625 24.3735 4.625C28.953 4.625 33.3616 6.01237 36.9377 8.51075C24.8942 9.72175 15.249 19.1285 15.249 30.875C15.249 34.5285 16.1855 38.0457 17.9511 41.197C16.8821 40.8786 15.841 40.4805 14.8347 40.0026ZM50.8154 47.5249C50.3047 47.2652 49.6934 47.2496 49.1612 47.5026C46.2381 48.8911 42.9397 49.625 39.6225 49.625C28.2505 49.625 18.9987 41.2137 18.9987 30.875C18.9987 20.5362 28.2505 12.125 39.6225 12.125C50.9945 12.125 60.2462 20.5362 60.2462 30.875C60.2462 34.7876 58.9336 38.5357 56.4502 41.7144C56.0689 42.2025 55.9532 42.8475 56.1411 43.4379L58.7236 51.5461L50.8154 47.5249Z" fill="black"/>
<path d="M50.8154 47.5249C50.3047 47.2652 49.6934 47.2496 49.1612 47.5026C46.2381 48.8911 42.9397 49.625 39.6225 49.625C28.2505 49.625 18.9987 41.2137 18.9987 30.875C18.9987 20.5362 28.2505 12.125 39.6225 12.125C50.9945 12.125 60.2462 20.5362 60.2462 30.875C60.2462 34.7876 58.9336 38.5357 56.4502 41.7144C56.0689 42.2025 55.9532 42.8475 56.1411 43.4379L58.7236 51.5461L50.8154 47.5249Z" fill="white"/>
<path d="M14.8347 40.0026C14.3096 39.7532 13.6987 39.7615 13.1806 40.025L5.27225 44.0462L7.85475 35.938C8.04275 35.3476 7.92712 34.7026 7.54562 34.2145C5.06237 31.0357 3.74975 27.2876 3.74975 23.375C3.74975 13.0362 13.0015 4.625 24.3735 4.625C28.953 4.625 33.3616 6.01237 36.9377 8.51075C24.8942 9.72175 15.249 19.1285 15.249 30.875C15.249 34.5285 16.1855 38.0457 17.9511 41.197C16.8821 40.8786 15.841 40.4805 14.8347 40.0026Z" fill="white"/>
</svg>
