<svg width="64" height="64" viewBox="0 0 64 64" fill="none" xmlns="http://www.w3.org/2000/svg">
<path d="M48.167 25.2137C44.83 26.2979 40.677 26.7249 36.8241 24.5223C31.8015 21.6509 32.47 15.5284 33.3188 12.1548C33.6149 10.9778 34.0784 9.85283 34.6878 8.80599C33.8163 8.69842 32.9188 8.64236 32 8.64236C31.0812 8.64236 30.1837 8.69842 29.3122 8.80599C29.1435 8.51617 28.9643 8.23207 28.7735 7.95486C24.7259 2.07242 19.6141 0.458547 17.4853 0.027918C16.8901 -0.0925561 16.2866 0.185047 15.99 0.712102C11.2674 9.10733 14.29 16.52 15.7873 19.2908C15.3347 19.4144 14.8717 19.5823 14.4104 19.7961C13.5276 20.2053 12.7699 20.7269 12.1861 21.2914C11.6108 21.8477 11.2054 22.4455 11.0176 23.0192C10.8548 23.5163 10.8543 23.9952 11.0501 24.4125C11.617 25.6213 13.6323 25.9146 15.7992 25.2028C15.8274 25.1935 15.8554 25.1848 15.8836 25.1752C15.8664 25.188 15.8499 25.2009 15.833 25.2137C14.4978 26.2239 13.8198 27.5119 14.259 28.4485C14.7992 29.6003 16.8351 29.8077 18.9156 28.9679C20.3899 30.1458 22.2805 30.9528 24.4322 31.4727L18.1924 52.3708H32H45.8077L39.5678 31.4727C41.7195 30.9528 43.6102 30.1458 45.0845 28.9679C47.1649 29.8077 49.2008 29.6003 49.741 28.4485C50.1802 27.5119 49.5022 26.2239 48.167 25.2137Z" fill="white"/>
<path d="M20.4763 19.2076C20.4763 22.0787 22.7188 24.4061 25.4851 24.4061C28.2514 24.4061 30.494 22.0787 30.494 19.2076C30.494 16.3366 28.2514 14.0092 25.4851 14.0092C22.7188 14.0092 20.4763 16.3366 20.4763 19.2076Z" fill="#00E28E"/>
<path d="M15.3008 35.2022C16.0376 35.4838 16.7706 35.6657 17.4816 35.774L17.0017 40.0828C15.9686 39.9372 14.8937 39.6797 13.804 39.2692C12.7335 38.866 11.7195 38.3438 10.7625 37.7062L13.0139 33.9863C13.7373 34.4901 14.4999 34.8962 15.3008 35.2022Z" fill="#B0B0B0"/>
<path d="M24.1501 34.9526L24.141 34.9569L25.997 38.8744C25.8298 38.9526 23.0218 40.2385 19.2418 40.2385C18.5262 40.2385 17.7756 40.192 17.0016 40.0829L17.4816 35.7741C21.0827 36.3226 24.114 34.9691 24.1501 34.9526Z" fill="#636363"/>
<path d="M5.00348 31.3352L8.8901 29.3633C10.0743 31.3541 11.4526 32.8991 13.0139 33.9864L10.7625 37.7063C8.5225 36.2141 6.59685 34.0847 5.00348 31.3352Z" fill="#636363"/>
<path d="M3.11875 27.2328C2.99788 27.5341 2.93495 27.8641 2.94398 28.2089C2.9796 29.5694 4.11794 30.6436 5.48644 30.6081C6.85494 30.5726 7.93534 29.441 7.89971 28.0806C7.86899 26.9093 7.02077 25.951 5.91222 25.7296L6.4945 22.8618C8.9192 23.3462 10.7746 25.4424 10.8417 28.0043C10.9198 30.9802 8.5565 33.4554 5.56314 33.5329C2.56977 33.6105 0.0798827 31.261 0.00186715 28.2852C-0.0178895 27.5309 0.119785 26.809 0.384244 26.1499L3.11875 27.2328Z" fill="#B0B0B0"/>
<path d="M15.8331 25.2137C15.8219 25.2101 15.8105 25.2064 15.7993 25.2028C15.8274 25.1934 15.8554 25.1847 15.8836 25.1751C15.8664 25.1879 15.85 25.2009 15.8331 25.2137Z" fill="#2B9DFF"/>
<path d="M52.9824 23.0191C52.7946 22.4455 52.3893 21.8476 51.8139 21.2914C51.2301 20.7269 50.4724 20.2052 49.5896 19.7961C49.1284 19.5823 48.6654 19.4143 48.2128 19.2908C49.7101 16.52 52.7326 9.10731 48.01 0.712087C47.7135 0.185032 47.11 -0.0925687 46.5147 0.0279054C44.386 0.458535 39.2741 2.07241 35.2265 7.95484C35.0358 8.23206 34.8566 8.51615 34.6879 8.80597C34.0785 9.85281 33.615 10.9778 33.3189 12.1547C32.4701 15.5284 31.8016 21.6509 36.8241 24.5223C40.6771 26.7249 44.8301 26.2978 48.167 25.2137C48.1502 25.2009 48.1336 25.188 48.1166 25.1753C48.1446 25.1848 48.1727 25.1936 48.2008 25.2028C50.3677 25.9147 52.3831 25.6212 52.9499 24.4125C53.1457 23.9952 53.1452 23.5163 52.9824 23.0191Z" fill="#2B9DFF"/>
<path d="M48.6991 35.2022C47.9623 35.4838 47.2293 35.6657 46.5183 35.774L46.9982 40.0828C48.0313 39.9372 49.1062 39.6797 50.1959 39.2692C51.2664 38.866 52.2804 38.3438 53.2374 37.7062L50.986 33.9863C50.2626 34.4901 49.5 34.8962 48.6991 35.2022Z" fill="#B0B0B0"/>
<path d="M39.8498 34.9526L39.859 34.9569L38.0029 38.8744C38.1701 38.9526 40.9782 40.2385 44.7582 40.2385C45.4737 40.2385 46.2243 40.192 46.9983 40.0829L46.5184 35.7741C42.9172 36.3226 39.886 34.9691 39.8498 34.9526Z" fill="#636363"/>
<path d="M58.9965 31.3352L55.1099 29.3633C53.9257 31.3541 52.5474 32.8991 50.9861 33.9864L53.2375 37.7063C55.4775 36.2141 57.4032 34.0847 58.9965 31.3352Z" fill="#636363"/>
<path d="M33.8281 24.1365C33.8281 24.6174 33.0096 25.0073 31.9999 25.0073C30.9903 25.0073 30.1718 24.6174 30.1718 24.1365C30.1718 23.6555 30.9903 23.2656 31.9999 23.2656C33.0096 23.2656 33.8281 23.6555 33.8281 24.1365Z" fill="#FFA3AB"/>
<path d="M40.2055 19.2076C40.2055 20.7227 39.4486 21.9509 38.5148 21.9509C37.581 21.9509 36.824 20.7227 36.824 19.2076C36.824 17.6926 37.581 16.4643 38.5148 16.4643C39.4486 16.4643 40.2055 17.6926 40.2055 19.2076Z" fill="#3C6E8B"/>
<path d="M48.1671 25.2137C48.1783 25.2101 48.1896 25.2064 48.2008 25.2028C48.1727 25.1934 48.1447 25.1847 48.1166 25.1751C48.1337 25.1879 48.1502 25.2009 48.1671 25.2137Z" fill="#2B9DFF"/>
<path d="M40.4056 11.3087C40.4056 11.3087 40.391 9.04447 41.9824 7.01242C43.5738 4.98037 45.0923 4.90776 45.866 5.57547C46.6399 6.2431 46.5669 8.60905 44.0995 10.1331C44.0995 10.1331 45.5011 9.92986 46.4793 11.0765C46.4793 11.0765 47.3845 12.1651 46.5669 12.9344C46.5669 12.9344 45.0485 14.4729 40.4056 11.3087Z" fill="#FFA3AB"/>
<path d="M23.7944 19.2076C23.7944 20.7227 24.5513 21.9509 25.4851 21.9509C26.4189 21.9509 27.1759 20.7227 27.1759 19.2076C27.1759 17.6926 26.4189 16.4643 25.4851 16.4643C24.5513 16.4643 23.7944 17.6926 23.7944 19.2076Z" fill="#3C6E8B"/>
<path d="M23.5945 11.3087C23.5945 11.3087 23.6091 9.04447 22.0177 7.01242C20.4262 4.98037 18.9078 4.90776 18.134 5.57547C17.3602 6.2431 17.4332 8.60905 19.9006 10.1331C19.9006 10.1331 18.499 9.92986 17.5208 11.0765C17.5208 11.0765 16.6155 12.1651 17.4332 12.9344C17.4332 12.9344 18.9516 14.4729 23.5945 11.3087Z" fill="#FFA3AB"/>
<path d="M37.7873 39.104C37.7873 39.104 39.7 40.3232 38.9408 42.6601C38.9408 42.6601 37.4145 46.1203 44.0363 46.4382L39.6021 31.5875C38.2209 31.6163 35.1522 32.0877 35.4586 35.7439C35.4586 35.7439 35.5681 37.667 37.7873 39.104Z" fill="#00E28E"/>
<path d="M26.2127 39.104C26.2127 39.104 24.3 40.3232 25.0593 42.6601C25.0593 42.6601 26.5856 46.1203 19.9637 46.4382L24.3979 31.5875C25.7791 31.6163 28.8479 32.0877 28.5414 35.7439C28.5414 35.7439 28.4319 37.667 26.2127 39.104Z" fill="#00E28E"/>
<path d="M47.0122 50.1014H32H16.9878C13.4924 50.1014 10.6587 52.9185 10.6587 56.3935C10.6587 59.8686 13.4924 62.6855 16.9878 62.6855H32H47.0122C50.5077 62.6855 53.3414 59.8686 53.3414 56.3935C53.3414 52.9185 50.5077 50.1014 47.0122 50.1014Z" fill="#636363"/>
<path d="M14.0021 56.3934C14.0021 58.2268 15.4972 59.7131 17.3414 59.7131C19.1857 59.7131 20.6807 58.2268 20.6807 56.3934C20.6807 54.56 19.1857 53.0738 17.3414 53.0738C15.4972 53.0738 14.0021 54.56 14.0021 56.3934Z" fill="#B0B0B0"/>
<path d="M35.3393 56.3934C35.3393 58.2268 33.8443 59.7131 32 59.7131C30.1558 59.7131 28.6607 58.2268 28.6607 56.3934C28.6607 54.56 30.1558 53.0738 32 53.0738C33.8443 53.0738 35.3393 54.56 35.3393 56.3934Z" fill="#B0B0B0"/>
<path d="M60.8812 27.2328C61.0021 27.5341 61.065 27.8641 61.056 28.2089C61.0204 29.5694 59.8821 30.6436 58.5136 30.6081C57.1451 30.5726 56.0647 29.441 56.1003 28.0806C56.131 26.9093 56.9792 25.951 58.0878 25.7296L57.5055 22.8618C55.0808 23.3462 53.2254 25.4424 53.1583 28.0043C53.0802 30.9802 55.4435 33.4554 58.4369 33.5329C61.4302 33.6105 63.9201 31.261 63.9981 28.2852C64.0179 27.5309 63.8802 26.809 63.6158 26.1499L60.8812 27.2328Z" fill="#B0B0B0"/>
<path d="M47.0122 61.3709H32H16.9878C14.227 61.3709 11.981 59.138 11.981 56.3934C11.981 53.6488 14.227 51.4159 16.9878 51.4159H32H47.0122C49.773 51.4159 52.019 53.6488 52.019 56.3934C52.019 59.138 49.773 61.3709 47.0122 61.3709ZM47.0122 48.7868H32H16.9878C12.7687 48.7868 9.33636 52.1991 9.33636 56.3934C9.33636 60.5877 12.7687 64 16.9878 64H32H47.0122C51.2312 64 54.6636 60.5877 54.6636 56.3934C54.6636 52.1991 51.2312 48.7868 47.0122 48.7868Z" fill="#B0B0B0"/>
<path d="M49.9979 56.3934C49.9979 58.2268 48.5028 59.7131 46.6586 59.7131C44.8143 59.7131 43.3193 58.2268 43.3193 56.3934C43.3193 54.56 44.8143 53.0738 46.6586 53.0738C48.5028 53.0738 49.9979 54.56 49.9979 56.3934Z" fill="#B0B0B0"/>
</svg>
