<svg width="64" height="64" viewBox="0 0 64 64" fill="none" xmlns="http://www.w3.org/2000/svg">
<g clip-path="url(#clip0_101_5)">
<path d="M0 5C0 2.23858 2.23858 0 5 0H59C61.7614 0 64 2.23858 64 5V59C64 61.7614 61.7614 64 59 64H5C2.23858 64 0 61.7614 0 59V5Z" fill="#10A37F"/>
<path d="M50.7602 28.1329C51.2545 26.6511 51.426 25.0812 51.2631 23.528C51.1003 21.9748 50.607 20.4742 49.8161 19.1267C48.6438 17.0886 46.853 15.4749 44.7023 14.5186C42.5516 13.5622 40.152 13.3126 37.8499 13.8058C36.8115 12.6378 35.5352 11.7046 34.1063 11.0687C32.6773 10.4329 31.1288 10.109 29.5644 10.1189C27.2107 10.1132 24.916 10.8537 23.0112 12.2338C21.1063 13.6138 19.6897 15.5619 18.9656 17.7974C17.4323 18.1107 15.9837 18.7473 14.7169 19.6646C13.45 20.582 12.3941 21.7589 11.6198 23.1165C10.4381 25.1491 9.93369 27.5036 10.1793 29.8408C10.4249 32.1779 11.4079 34.3768 12.9864 36.1202C12.4921 37.602 12.3207 39.172 12.4835 40.7252C12.6463 42.2784 13.1396 43.7789 13.9305 45.1264C15.1029 47.1645 16.8937 48.778 19.0444 49.7343C21.1951 50.6907 23.5947 50.9404 25.8967 50.4473C26.9351 51.6153 28.2115 52.5485 29.6403 53.1844C31.0693 53.8202 32.6178 54.144 34.1822 54.1343C36.5371 54.1404 38.833 53.3995 40.7385 52.0186C42.6442 50.6377 44.061 48.6882 44.7845 46.4514C46.3178 46.1381 47.7664 45.5015 49.0333 44.5841C50.3001 43.6668 51.356 42.4899 52.1303 41.1322C53.3105 39.0999 53.8138 36.7459 53.5675 34.4097C53.3213 32.0734 52.3383 29.8756 50.7602 28.1329ZM34.1857 51.2568C32.2526 51.2596 30.3803 50.5838 28.8959 49.3479C28.9628 49.3114 29.0802 49.2472 29.1567 49.2004L37.9368 44.138C38.1572 44.0129 38.3402 43.8315 38.467 43.6123C38.5939 43.3931 38.6599 43.1442 38.6584 42.8912V30.5356L42.3696 32.6746C42.389 32.6842 42.4057 32.6985 42.4184 32.7163C42.431 32.734 42.4389 32.7546 42.4417 32.776V43.0083C42.4389 45.1938 41.5684 47.289 40.021 48.8351C38.4735 50.3812 36.3751 51.2521 34.1857 51.2568ZM16.4307 43.6878C15.4624 42.0178 15.1134 40.0612 15.4448 38.1602C15.51 38.1993 15.6239 38.2687 15.7056 38.3156L24.4858 43.3779C24.7046 43.5055 24.9535 43.5729 25.207 43.5729C25.4603 43.5729 25.7092 43.5055 25.9281 43.3779L36.6477 37.1997V41.4776C36.6489 41.4994 36.6447 41.5213 36.6354 41.5411C36.6262 41.5609 36.6122 41.5782 36.5946 41.5913L27.7188 46.7065C25.8203 47.798 23.5656 48.093 21.4494 47.527C19.3331 46.9611 17.5282 45.5803 16.4307 43.6878ZM14.1209 24.5552C15.0849 22.883 16.6076 21.6028 18.4223 20.9385C18.4223 21.014 18.4179 21.1477 18.4179 21.2405V31.3651C18.4164 31.618 18.4823 31.8666 18.609 32.0857C18.7357 32.3047 18.9184 32.4861 19.1386 32.6112L29.8582 38.7886L26.1471 40.9274C26.1288 40.9395 26.1077 40.9468 26.0859 40.9488C26.0641 40.9507 26.042 40.9473 26.0219 40.9387L17.1452 35.8192C15.2501 34.7236 13.8674 32.9227 13.3005 30.8111C12.7335 28.6997 13.0286 26.45 14.1209 24.5552ZM44.6116 31.6375L33.8918 25.4594L37.603 23.3213C37.6213 23.3093 37.6424 23.3019 37.6642 23.3C37.686 23.298 37.708 23.3015 37.7281 23.3101L46.6048 28.4253C47.9648 29.2094 49.0727 30.3639 49.7991 31.7539C50.5254 33.1438 50.8399 34.7114 50.706 36.2733C50.572 37.8352 49.9949 39.3267 49.0425 40.5731C48.09 41.8195 46.8015 42.7693 45.3278 43.3111C45.3278 43.2347 45.3278 43.1011 45.3278 43.0083V32.8836C45.3299 32.6312 45.2646 32.3827 45.1387 32.1638C45.0128 31.9448 44.8309 31.7632 44.6116 31.6375ZM48.3052 26.0885C48.2401 26.0485 48.1262 25.98 48.0445 25.9332L39.2643 20.8708C39.0454 20.7434 38.7966 20.6762 38.5432 20.6762C38.2898 20.6762 38.0409 20.7434 37.8221 20.8708L27.1025 27.0491V22.7712C27.1012 22.7493 27.1054 22.7275 27.1147 22.7077C27.124 22.6879 27.138 22.6706 27.1555 22.6575L36.0313 17.5466C37.391 16.764 38.946 16.384 40.5142 16.4512C42.0824 16.5184 43.5989 17.03 44.8865 17.926C46.174 18.8221 47.1793 20.0656 47.7848 21.5112C48.3902 22.9566 48.5708 24.5443 48.3052 26.0885ZM25.0848 33.7132L21.3727 31.5743C21.3533 31.5646 21.3365 31.5503 21.3239 31.5326C21.3113 31.5149 21.3033 31.4943 21.3006 31.4727V21.2405C21.3016 19.6733 21.7499 18.1389 22.5928 16.8167C23.4358 15.4946 24.6387 14.4395 26.0606 13.7749C27.4825 13.1103 29.0646 12.8637 30.6217 13.0641C32.179 13.2644 33.6468 13.9034 34.8534 14.9061C34.7864 14.9426 34.6699 15.0068 34.5925 15.0536L25.8124 20.1159C25.592 20.2409 25.4091 20.4223 25.2823 20.6413C25.1555 20.8603 25.0894 21.1091 25.0909 21.3619L25.0848 33.7132ZM27.1007 29.3746L31.8751 26.6222L36.6493 29.3728V34.8759L31.8751 37.6267L27.1007 34.8759V29.3746Z" fill="white"/>
</g>
<defs>
<clipPath id="clip0_101_5">
<rect width="64" height="64" fill="white"/>
</clipPath>
</defs>
</svg>
