<svg width="64" height="46" viewBox="0 0 64 46" fill="none" xmlns="http://www.w3.org/2000/svg">
<g clip-path="url(#clip0_310_229)">
<path d="M64 30.6408C64 27.7985 60.0816 25.8303 55.8298 25.8303C54.8593 25.8303 53.9311 25.933 53.076 26.1253C49.8865 19.079 41.6539 13.0853 32.0002 13.0853C30.8337 13.0853 29.6881 13.1727 28.5698 13.3392C27.2069 10.3076 22.6762 2.43426 11.5954 0.0830064C11.0491 -0.0327456 10.4946 0.240578 10.259 0.7469C8.85913 3.75608 4.74247 14.4116 10.2403 25.9931C9.58165 25.8864 8.88751 25.8303 8.17022 25.8303C3.91839 25.8303 0 27.7985 0 30.6408C0 33.483 3.91839 35.2272 8.17022 35.2272C8.71127 35.2272 9.23925 35.1988 9.74893 35.1435C9.43602 35.2664 9.12275 35.4075 8.81171 35.5677C5.69388 37.1707 3.9688 40.0312 4.95904 41.9568C5.9489 43.8824 9.2792 44.1442 12.397 42.5412C13.0464 42.2074 13.6348 41.819 14.1516 41.396C18.2627 44.4967 24.7283 45.9809 31.9998 45.9809C39.2713 45.9809 45.737 44.4967 49.848 41.396C50.3644 41.819 50.9533 42.2074 51.6026 42.5412C54.7204 44.1442 58.0503 43.8824 59.0406 41.9568C60.0305 40.0312 58.3057 37.1707 55.1879 35.5677C54.8761 35.4075 54.5621 35.2667 54.2485 35.1435C54.7589 35.1988 55.2876 35.2275 55.8294 35.2275C60.0812 35.2275 63.9996 33.4834 63.9996 30.6411L64 30.6408Z" fill="white"/>
<path d="M22.2293 36.7443C26.5935 36.7443 30.1314 33.2064 30.1314 28.8422C30.1314 24.478 26.5935 20.9401 22.2293 20.9401C17.8651 20.9401 14.3271 24.478 14.3271 28.8422C14.3271 33.2064 17.8651 36.7443 22.2293 36.7443Z" fill="#00E28E"/>
<path d="M22.2655 33.1361C23.5022 33.1361 24.5047 31.2805 24.5047 28.9915C24.5047 26.7024 23.5022 24.8468 22.2655 24.8468C21.0288 24.8468 20.0262 26.7024 20.0262 28.9915C20.0262 31.2805 21.0288 33.1361 22.2655 33.1361Z" fill="#3C6E8B"/>
<path d="M31.9998 37.9156C33.4237 37.9156 34.5781 37.3409 34.5781 36.6319C34.5781 35.9229 33.4237 35.3481 31.9998 35.3481C30.5758 35.3481 29.4215 35.9229 29.4215 36.6319C29.4215 37.3409 30.5758 37.9156 31.9998 37.9156Z" fill="#FF9493"/>
<path d="M54.2503 35.1058C54.76 35.1611 55.2879 35.1894 55.829 35.1894C60.0808 35.1894 63.9992 33.4453 63.9992 30.603C63.9992 27.7608 60.0808 25.7926 55.829 25.7926C55.1117 25.7926 54.4176 25.849 53.7585 25.9558C59.2567 14.3742 55.1397 3.71872 53.7402 0.709546C53.5046 0.203225 52.9501 -0.0700991 52.4038 0.0456529C41.323 2.39691 36.7923 10.2707 35.4298 13.3015C34.4541 13.1566 33.4579 13.0711 32.4452 13.0517C31.2743 20.033 28.9656 43.9365 54.3436 35.1439C54.3123 35.1312 54.2813 35.1181 54.2499 35.1058H54.2503Z" fill="#2B9DFF"/>
<path d="M41.7342 33.1361C42.9709 33.1361 43.9735 31.2805 43.9735 28.9915C43.9735 26.7024 42.9709 24.8468 41.7342 24.8468C40.4975 24.8468 39.495 26.7024 39.495 28.9915C39.495 31.2805 40.4975 33.1361 41.7342 33.1361Z" fill="#3C6E8B"/>
</g>
<defs>
<clipPath id="clip0_310_229">
<rect width="64" height="45.9617" fill="white" transform="translate(0 0.019165)"/>
</clipPath>
</defs>
</svg>
