<svg width="64" height="64" viewBox="0 0 64 64" fill="none" xmlns="http://www.w3.org/2000/svg">
<g clip-path="url(#clip0_352_25)">
<path d="M9.9961 32.7697C15.0765 32.7697 19.195 28.6496 19.195 23.5672C19.195 18.4848 15.0765 14.3646 9.9961 14.3646C4.91571 14.3646 0.797241 18.4848 0.797241 23.5672C0.797241 28.6496 4.91571 32.7697 9.9961 32.7697Z" fill="#00E28E"/>
<path d="M38.1959 3.15941C35.8315 2.06395 32.181 0.702558 22.347 2.28207C13.7788 4.85172 7.42143 11.0349 6.17969 18.5101H12.745C19.5204 4.442 30.5603 3.21282 38.1959 3.15941Z" fill="#8B8C8C"/>
<path d="M15.5907 36.8756C22.2439 36.8756 27.6374 31.48 27.6374 24.824C27.6374 18.1681 22.2439 12.7725 15.5907 12.7725C8.93745 12.7725 3.54395 18.1681 3.54395 24.824C3.54395 31.48 8.93745 36.8756 15.5907 36.8756Z" fill="#6E6B6B"/>
<path d="M10.0995 38.5877C10.0995 38.5877 5.03315 20.918 16.7573 9.83155C17.6242 9.01173 18.9242 8.86121 19.9539 9.46403C22.7559 11.1044 28.0686 15.6357 30.5341 27.1464L10.0998 38.5877H10.0995Z" fill="#DCDDDD"/>
<path d="M11.1344 42.9005C13.5746 41.3729 14.9489 39.3605 14.3728 37.8299C13.6187 35.8261 9.80831 35.4066 5.86205 36.8932C1.91578 38.3797 -0.314582 42.2468 0.0359896 43.4263C0.285758 44.2656 1.82543 44.8796 3.85158 44.9453C2.20513 46.4348 1.39235 48.3569 1.62121 49.1087C2.01323 50.3973 5.50886 51.2014 8.74614 49.9823C11.9834 48.7628 14.0566 46.3105 13.3767 44.5039C13.068 43.6837 12.2444 43.1376 11.1344 42.9005Z" fill="#DCDDDD"/>
<path d="M31.201 58.362C43.5602 58.362 53.5797 51.0983 53.5797 41.4472C53.5797 31.796 43.5606 23.972 31.201 23.972C18.8414 23.972 9.23221 31.4801 8.83497 40.8589C8.79614 41.774 8.5964 42.6771 8.20999 43.5077C7.8624 44.2547 7.42969 44.8086 6.51574 45.5638C4.94359 46.8629 4.89393 49.0538 6.17973 50.3072C7.03246 51.1383 13.1759 58.362 31.201 58.362Z" fill="white"/>
<path d="M15.986 48.8742C18.9288 48.8742 21.3144 45.5546 21.3144 41.4596C21.3144 37.3646 18.9288 34.0449 15.986 34.0449C13.0432 34.0449 10.6576 37.3646 10.6576 41.4596C10.6576 45.5546 13.0432 48.8742 15.986 48.8742Z" fill="#00E28E"/>
<path d="M53.2325 38.3689C53.0862 37.7261 52.895 37.0956 52.6613 36.4794C52.6053 37.2406 52.5542 37.9487 52.5116 38.5878L53.2325 38.3689Z" fill="white"/>
<path d="M54.5993 38.8984C54.1487 38.7289 53.6996 38.5847 53.2545 38.4648C53.2474 38.4327 53.24 38.4009 53.2325 38.3688L52.5116 38.5877C52.5541 37.9486 52.6053 37.2401 52.6613 36.4793C53.1944 29.2593 54.1983 17.2869 53.1253 14.5521C52.6893 13.441 51.5752 12.7549 50.3869 12.8621C41.5397 13.6613 35.4575 19.1797 31.7775 23.978C28.7739 27.8941 27.3705 31.3303 27.3705 31.3303C27.3705 31.3303 16.7652 52.0787 45.3389 54.6585C46.0635 54.2192 46.7505 53.746 47.3952 53.2407C47.5554 53.309 47.7186 53.3748 47.8843 53.4371C51.34 54.7388 55.0712 53.8801 55.4897 52.5045C55.7444 51.6679 54.7912 49.4747 52.8816 47.8616C56.6176 48.7423 60.2163 47.7537 60.6665 46.2731C61.0866 44.893 58.811 40.4851 54.5986 38.8981L54.5993 38.8984Z" fill="#2B9DFF"/>
<path d="M39.8634 2.21521C37.1667 1.43012 34.255 1.03347 31.2185 1.00172C25.718 0.94346 21.4992 2.37133 18.4666 3.76036C24.6062 1.38792 29.6497 1.76515 34.1639 2.93158C38.0508 3.93591 44.9461 9.27466 47.7294 18.5105H56.2577C55.0051 10.9696 48.5463 4.74303 39.8637 2.21559L39.8634 2.21521Z" fill="#B9BABA"/>
<path d="M31.0043 58.7288C31.0043 58.7288 53.3053 59.2768 56.9891 37.4646L47.8795 38.0622C47.8795 38.0622 47.6805 53.2261 31.0539 55.9153L31.0043 58.7288Z" fill="#B9BABA"/>
<path d="M32.9229 47.1972C33.9742 47.1972 34.8265 45.4127 34.8265 43.2113C34.8265 41.0099 33.9742 39.2253 32.9229 39.2253C31.8715 39.2253 31.0192 41.0099 31.0192 43.2113C31.0192 45.4127 31.8715 47.1972 32.9229 47.1972Z" fill="#3C6E8B"/>
<path d="M16.0237 45.636C17.0751 45.636 17.9274 43.8514 17.9274 41.65C17.9274 39.4486 17.0751 37.6641 16.0237 37.6641C14.9723 37.6641 14.12 39.4486 14.12 41.65C14.12 43.8514 14.9723 45.636 16.0237 45.636Z" fill="#3C6E8B"/>
<path d="M34.5682 56.9881C34.8489 59.6029 31.7946 62.0751 28.3173 62.4486C24.8399 62.8221 22.8481 60.8918 22.5674 58.277C22.2866 55.6622 23.8237 53.3528 27.301 52.9793C30.7784 52.6058 34.2874 54.3732 34.5682 56.9881Z" fill="#6E6B6B"/>
<path d="M23.7134 50.185C23.7812 49.6283 22.93 49.0666 21.8122 48.9305C20.6944 48.7943 19.7334 49.1353 19.6656 49.6921C19.5979 50.2489 20.4491 50.8105 21.5669 50.9466C22.6846 51.0828 23.6457 50.7418 23.7134 50.185Z" fill="#FF9493"/>
<path d="M50.9435 40.4018C58.1545 40.4018 64.0001 34.7494 64.0001 27.7769C64.0001 20.8043 58.1545 15.152 50.9435 15.152C43.7325 15.152 37.8868 20.8043 37.8868 27.7769C37.8868 34.7494 43.7325 40.4018 50.9435 40.4018Z" fill="#6E6B6B"/>
<path d="M53.3116 37.5274C58.392 37.5274 62.5105 33.4073 62.5105 28.3249C62.5105 23.2424 58.392 19.1223 53.3116 19.1223C48.2313 19.1223 44.1128 23.2424 44.1128 28.3249C44.1128 33.4073 48.2313 37.5274 53.3116 37.5274Z" fill="#00E28E"/>
<g opacity="0.6">
<path d="M54.9645 27.0404C55.8476 26.9427 56.4737 26.0519 56.3631 25.0508C56.2524 24.0496 55.4468 23.3172 54.5637 23.4149C53.6806 23.5126 53.0544 24.4034 53.1651 25.4045C53.2757 26.4057 54.0814 27.1381 54.9645 27.0404Z" fill="white"/>
<path d="M51.1074 29.2331C51.9905 29.1354 52.6167 28.2447 52.506 27.2435C52.3954 26.2424 51.5898 25.51 50.7067 25.6077C49.8236 25.7054 49.1974 26.5961 49.308 27.5973C49.4187 28.5984 50.2243 29.3308 51.1074 29.2331Z" fill="white"/>
<path d="M59.2075 28.3371C60.0906 28.2394 60.7168 27.3487 60.6061 26.3475C60.4955 25.3464 59.6899 24.614 58.8068 24.7117C57.9237 24.8094 57.2975 25.7001 57.4081 26.7013C57.5188 27.7024 58.3244 28.4348 59.2075 28.3371Z" fill="white"/>
<path d="M59.2037 31.2639C59.3848 32.9017 57.7884 33.7458 55.7294 33.9733C53.6704 34.2011 51.9284 33.726 51.7477 32.0882C51.5666 30.4504 53.0111 28.2326 55.0701 28.0052C57.1291 27.7777 59.0227 29.6261 59.2037 31.2639Z" fill="white"/>
</g>
</g>
<defs>
<clipPath id="clip0_352_25">
<rect width="64" height="64" fill="white"/>
</clipPath>
</defs>
</svg>
