<svg width="64" height="64" viewBox="0 0 64 64" fill="none" xmlns="http://www.w3.org/2000/svg">
<g clip-path="url(#clip0_323_423)">
<path d="M0 0H64V64H0V0Z" fill="#8F9ED1"/>
<path d="M21.7412 32.0461L22.0318 30.8851L21.7412 32.0461ZM21.7412 32.0461C21.0578 34.7763 18.616 36.6829 15.803 36.6829M21.7412 32.0461L15.803 36.6829M15.803 36.6829H10.9194M15.803 36.6829H10.9194M10.9194 36.6829L13.361 26.9164H18.9313C19.9227 26.9164 20.8396 27.3638 21.45 28.1449C22.0588 28.9261 22.2706 29.9252 22.0318 30.885L10.9194 36.6829ZM24.1207 26.0585L24.1206 26.0584C22.8634 24.4501 20.9733 23.5276 18.9313 23.5276H10.7526H10.7136L10.7041 23.5655L4.95149 46.5872L4.93597 46.6493H5H8.38837H8.42741L8.43688 46.6114L10.0722 40.0717H15.803C20.1731 40.0717 23.9668 37.1093 25.0274 32.87L24.9789 32.8579L25.0274 32.87L25.3181 31.7074C25.8132 29.7269 25.3763 27.6684 24.1207 26.0585Z" fill="white" stroke="white" stroke-width="0.1"/>
<path d="M56.2737 32.0461L56.5643 30.8851L56.2737 32.0461ZM56.2737 32.0461C55.5903 34.7763 53.1485 36.6829 50.3355 36.6829M56.2737 32.0461L50.3355 36.6829M50.3355 36.6829H45.4519M50.3355 36.6829H45.4519M45.4519 36.6829L47.8935 26.9164H53.4637C54.4552 26.9164 55.372 27.3638 55.9824 28.1449C56.5912 28.9261 56.8031 29.9252 56.5643 30.885L45.4519 36.6829ZM58.6532 26.0585L58.6531 26.0584C57.3959 24.4501 55.5057 23.5276 53.4637 23.5276H45.2851H45.246L45.2366 23.5655L39.484 46.5872L39.4684 46.6493H39.5325H42.9208H42.9599L42.9693 46.6114L44.6047 40.0717H50.3355C54.7055 40.0717 58.4993 37.1093 59.5599 32.87L59.5114 32.8579L59.5599 32.87L59.8506 31.7074C60.3457 29.7269 59.9088 27.6684 58.6532 26.0585Z" fill="white" stroke="white" stroke-width="0.1"/>
<path d="M40.9479 25.5534L40.9478 25.5534C39.8994 24.2667 38.3467 23.5276 36.6857 23.5276H31.5329L32.7178 17.0089L32.7285 16.95H32.6686H29.3276H29.2859L29.2784 16.9911L25.0933 40.0127L25.0826 40.0716H25.1425H28.4835H28.5252L28.5327 40.0306L30.9168 26.9164H36.6857C37.3226 26.9164 37.917 27.1987 38.3186 27.6929C38.7205 28.1874 38.8767 28.827 38.7631 29.3829L36.092 40.0094L36.0763 40.0716H36.1405H39.5314H39.5704L39.5799 40.0338L42.0656 30.1417L42.0657 30.1417L42.0661 30.1397C42.4032 28.5143 41.9947 26.8417 40.9479 25.5534Z" fill="white" stroke="white" stroke-width="0.1"/>
</g>
<defs>
<clipPath id="clip0_323_423">
<rect width="64" height="64" fill="white"/>
</clipPath>
</defs>
</svg>
