<svg width="64" height="64" viewBox="0 0 64 64" fill="none" xmlns="http://www.w3.org/2000/svg">
<g clip-path="url(#clip0_323_419)">
<path d="M0 0H64V64H0V0Z" fill="#FFDF00"/>
<path d="M36.3116 37.1954C37.4119 39.0229 38.8435 40.3661 41.3753 40.3661C43.5022 40.3661 44.8609 39.2847 44.8609 37.7907C44.8609 36.0002 43.465 35.3661 41.1239 34.3245L39.8406 33.7644C36.1364 32.1592 33.6757 30.1482 33.6757 25.8971C33.6757 21.9811 36.609 19 41.1932 19C44.4569 19 46.8032 20.1554 48.494 23.1806L44.4968 25.7913C43.6167 24.1861 42.6673 23.5537 41.1932 23.5537C39.6897 23.5537 38.7368 24.5239 38.7368 25.7913C38.7368 27.3577 39.6906 27.9918 41.8929 28.9621L43.1762 29.5212C47.5376 31.4236 50 33.3631 50 37.7236C50 42.4246 46.3695 45 41.494 45C36.7268 45 33.647 42.6892 32.14 39.6605L36.3116 37.1954ZM18.1784 37.6479C18.9848 39.1032 19.7184 40.3335 21.482 40.3335C23.1685 40.3335 24.2324 39.6623 24.2324 37.0526V19.2982H29.3655V37.123C29.3655 42.5295 26.2493 44.9903 21.7005 44.9903C17.5906 44.9903 15.2105 42.8268 14 40.221L18.1784 37.6479Z" fill="black"/>
</g>
<defs>
<clipPath id="clip0_323_419">
<rect width="64" height="64" fill="white"/>
</clipPath>
</defs>
</svg>
