<svg id="Capa_1" enable-background="new 0 0 512 512" viewBox="0 0 512 512" xmlns="http://www.w3.org/2000/svg"><g><path d="m221.926 463.159h200.219c14.82 0 26.833-12.014 26.833-26.833v-280.744l-122.24-30.422-29.481-125.16h-92.935l-91.76 12.54-27.922 123.193 19.407 252.948z" fill="#f8f8ff"/><path d="m142.86 289.522v-197.17c0-41.583 25.363-77.239 61.462-92.352h-114.467c-14.82 0-26.833 12.014-26.833 26.833v409.492c0 14.82 12.014 26.833 26.833 26.833h132.071c-48.445-42.202-79.066-104.341-79.066-173.636z" fill="#eeecff"/><path d="m448.978 155.582h-124.888c-14.819 0-26.833-12.014-26.833-26.833v-128.749z" fill="#eeecff"/><path d="m313.762 512h155.544c12.28 0 22.236-9.955 22.236-22.236v-134.354c0-12.28-9.955-22.236-22.236-22.236h-322.295l-37.72 19.323 19.609 98.8 103.999 53.548z" fill="#4a66a0"/><path d="m147.011 333.174h-104.317c-12.28 0-22.236 9.955-22.236 22.236v134.354c0 12.28 9.955 22.236 22.236 22.236h271.069c-84.623-22.499-150.08-91.983-166.752-178.826z" fill="#2a4f95"/><g fill="#f8f8ff"><path d="m206.444 447.349c-3.27-2.74-8.143-2.312-10.884.958-.834.995-1.737 1.928-2.687 2.774-4.867 4.335-11.032 6.532-18.325 6.532-19.314 0-35.026-15.713-35.026-35.026s15.712-35.026 35.026-35.026c7.02 0 13.791 2.067 19.577 5.977 3.536 2.389 8.338 1.459 10.728-2.076 2.388-3.535 1.459-8.339-2.076-10.727-8.352-5.643-18.114-8.626-28.229-8.626-27.834 0-50.479 22.645-50.479 50.479s22.645 50.479 50.479 50.479c11.039 0 20.93-3.612 28.603-10.446 1.508-1.343 2.939-2.819 4.253-4.386 2.74-3.272 2.31-8.144-.96-10.886z"/><path d="m275.213 416.012c-10.987-4.052-21.178-8.476-23.771-9.615-2.694-1.98-4.001-5.139-3.511-8.556.62-4.313 3.939-7.777 8.878-9.266 13.685-4.123 26.052 5.814 26.265 5.988 3.268 2.718 8.119 2.289 10.857-.967 2.745-3.267 2.324-8.14-.943-10.886-.758-.636-18.793-15.511-40.636-8.93-10.688 3.22-18.243 11.598-19.717 21.866-1.372 9.563 2.769 18.76 10.809 24.001.341.222.699.418 1.071.583.491.219 12.179 5.422 25.349 10.28 9.402 3.468 14.177 8.913 13.102 14.94-1.053 5.896-7.668 12.163-17.853 12.163-9.321 0-18.319-3.789-24.07-10.136-2.865-3.162-7.752-3.402-10.913-.537s-3.402 7.751-.537 10.913c8.632 9.526 21.91 15.213 35.521 15.213 16.316 0 30.53-10.704 33.064-24.899 1.919-10.742-3.108-24.83-22.965-32.155z"/><path d="m364.575 416.012c-10.987-4.052-21.178-8.476-23.771-9.615-2.694-1.98-4.001-5.139-3.511-8.556.62-4.313 3.939-7.777 8.878-9.266 13.684-4.123 26.051 5.814 26.265 5.988 3.267 2.718 8.12 2.289 10.857-.967 2.745-3.267 2.324-8.14-.943-10.886-.758-.636-18.792-15.511-40.636-8.93-10.688 3.22-18.243 11.598-19.717 21.866-1.372 9.563 2.769 18.76 10.809 24.001.341.222.699.418 1.071.583.491.219 12.179 5.422 25.349 10.28 9.402 3.468 14.177 8.913 13.102 14.94-1.053 5.896-7.668 12.163-17.853 12.163-9.321 0-18.319-3.789-24.07-10.136-2.865-3.162-7.751-3.402-10.913-.537s-3.402 7.751-.537 10.913c8.632 9.526 21.91 15.213 35.521 15.213 16.316 0 30.53-10.704 33.064-24.899 1.919-10.742-3.107-24.83-22.965-32.155z"/></g><path d="m207.596 226.725v-11.668c0-6.668 5.425-12.092 12.093-12.092 4.268 0 7.726-3.459 7.726-7.726s-3.459-7.726-7.726-7.726c-15.188 0-27.545 12.357-27.545 27.545v11.668c0 1.142-.615 2.207-1.604 2.778l-3.865 2.231c-3.308 1.909-5.362 5.468-5.362 9.288 0 3.819 2.054 7.378 5.362 9.287l3.865 2.232c.989.571 1.604 1.636 1.604 2.778v11.668c0 15.189 12.357 27.545 27.545 27.545 4.268 0 7.726-3.459 7.726-7.726s-3.459-7.726-7.726-7.726c-6.668 0-12.093-5.425-12.093-12.093v-11.668c0-5.552-2.495-10.787-6.671-14.297 4.176-3.51 6.671-8.746 6.671-14.298z" fill="#4a66a0"/><path d="m319.857 255.32c0-1.142.615-2.207 1.604-2.778l3.865-2.231c3.308-1.909 5.362-5.469 5.362-9.288 0-3.82-2.054-7.379-5.362-9.288l-3.865-2.231c-.989-.571-1.604-1.636-1.604-2.778v-11.668c0-15.188-12.357-27.545-27.545-27.545-4.268 0-7.726 3.459-7.726 7.726s3.459 7.726 7.726 7.726c6.668 0 12.093 5.425 12.093 12.092v11.668c0 5.552 2.495 10.787 6.671 14.297-4.176 3.51-6.671 8.745-6.671 14.297v11.668c0 6.668-5.425 12.093-12.093 12.093-4.268 0-7.726 3.459-7.726 7.726s3.459 7.726 7.726 7.726c15.188 0 27.545-12.357 27.545-27.545z" fill="#4a66a0"/></g><g/><g/><g/><g/><g/><g/><g/><g/><g/><g/><g/><g/><g/><g/><g/></svg>