<svg id="Capa_1" enable-background="new 0 0 512 512" viewBox="0 0 512 512" xmlns="http://www.w3.org/2000/svg"><g><path d="m221.926 463.159h200.219c14.82 0 26.833-12.014 26.833-26.833v-280.744l-122.24-30.422-29.481-125.16h-92.935l-91.76 12.54-27.922 123.193 19.407 252.948z" fill="#f8f8ff"/><path d="m142.86 289.522v-197.17c0-41.583 25.363-77.239 61.462-92.352h-114.467c-14.82 0-26.833 12.014-26.833 26.833v409.492c0 14.82 12.014 26.833 26.833 26.833h132.071c-48.445-42.202-79.066-104.341-79.066-173.636z" fill="#eeecff"/><path d="m448.978 155.582h-124.888c-14.819 0-26.833-12.014-26.833-26.833v-128.749z" fill="#eeecff"/><path d="m313.762 512h155.544c12.28 0 22.236-9.955 22.236-22.236v-134.354c0-12.28-9.955-22.236-22.236-22.236h-322.295l-37.72 19.323 19.609 98.8 103.999 53.548z" fill="#fad989"/><g fill="#f6ca56"><path d="m147.011 333.174h-104.317c-12.28 0-22.236 9.955-22.236 22.236v134.354c0 12.28 9.955 22.236 22.236 22.236h271.069c-84.623-22.499-150.08-91.983-166.752-178.826z"/><path d="m274.228 198.55c-3.967-1.577-8.458.358-10.035 4.323l-30.744 77.299c-1.577 3.965.359 8.458 4.324 10.035.937.373 1.903.549 2.853.549 3.072 0 5.977-1.845 7.182-4.873l30.744-77.299c1.577-3.965-.359-8.457-4.324-10.034z"/><path d="m319.047 286.007c1.219.706 2.551 1.042 3.866 1.042 2.666 0 5.26-1.382 6.693-3.855l20.646-35.642c1.412-2.437 1.385-5.45-.069-7.862l-20.646-34.244c-2.203-3.654-6.952-4.831-10.606-2.627-3.654 2.203-4.83 6.952-2.627 10.606l18.288 30.333-18.357 31.691c-2.14 3.692-.88 8.419 2.812 10.558z"/><path d="m189.088 287.049c1.314 0 2.647-.336 3.866-1.042 3.692-2.139 4.952-6.866 2.813-10.558l-18.357-31.691 18.288-30.333c2.203-3.654 1.027-8.403-2.627-10.606-3.656-2.204-8.403-1.026-10.606 2.627l-20.646 34.244c-1.454 2.412-1.481 5.425-.069 7.862l20.646 35.642c1.431 2.474 4.025 3.855 6.692 3.855z"/></g><path d="m356.678 461.725c-.001-.006-.001-.011-.002-.017l-15.628-81.776c-.007-.037-.015-.074-.022-.112-.887-4.295-4.563-7.461-8.942-7.699-2.887-.156-5.607.995-7.511 2.993-.976 1.024-1.742 2.267-2.197 3.679-.027.084-.053.168-.077.253l-18.125 63.554-18.769-63.629c-.025-.086-.052-.172-.081-.257-1.385-4.157-5.403-6.858-9.777-6.582-4.377.281-8.022 3.483-8.865 7.787-.007.038-.015.076-.021.114l-14.742 81.755-.274 1.49c-.771 4.197 2.007 8.224 6.203 8.995 4.195.774 8.224-2.007 8.995-6.203l.261-1.444c.006-.032.016-.063.022-.095l10.397-57.659 17.254 58.491.258.866c.028.094.057.187.089.279 1.334 3.933 5.005 6.559 9.151 6.559h.085c4.175-.036 7.835-2.731 9.107-6.707.029-.089.056-.179.081-.269l16.904-59.283 11.335 59.313c.799 4.192 4.845 6.943 9.036 6.143 4.192-.799 6.942-4.845 6.143-9.036z" fill="#fbf198"/><path d="m417.553 457.541c-.015 0-.03 0-.044 0-7.855.044-16.344.11-22.172.072v-77.779c0-4.267-3.459-7.726-7.726-7.726s-7.726 3.459-7.726 7.726v85.433c0 3.763 2.711 6.979 6.421 7.615.557.096 1.093.188 10.364.188 4.539 0 11.172-.022 20.926-.076 4.267-.024 7.707-3.503 7.683-7.77-.024-4.252-3.479-7.683-7.726-7.683z" fill="#fbf198"/><path d="m153.621 372.112c-4.267 0-7.726 3.459-7.726 7.726v33.553h-43.721v-33.553c0-4.267-3.459-7.726-7.726-7.726s-7.726 3.459-7.726 7.726v41.279 42.042 2.184c0 4.267 3.459 7.726 7.726 7.726s7.726-3.459 7.726-7.726v-2.184-34.315h43.721v34.315 2.184c0 4.267 3.459 7.726 7.726 7.726s7.726-3.459 7.726-7.726v-2.184-42.042-41.279c0-4.267-3.459-7.726-7.726-7.726z" fill="#fbf198"/><path d="m235.191 372.108h-47.22c-4.267 0-7.726 3.459-7.726 7.726s3.459 7.726 7.726 7.726h15.788v77.779c0 4.267 3.459 7.726 7.726 7.726s7.726-3.459 7.726-7.726v-77.779h15.979c4.267 0 7.726-3.459 7.726-7.726.001-4.267-3.458-7.726-7.725-7.726z" fill="#fbf198"/></g><g/><g/><g/><g/><g/><g/><g/><g/><g/><g/><g/><g/><g/><g/><g/></svg>